<?xml version="1.0" encoding="UTF-8" standalone="no"?><!DOCTYPE svg PUBLIC "-//W3C//DTD SVG 1.1//EN" "http://www.w3.org/Graphics/SVG/1.1/DTD/svg11.dtd"><svg width="100%" height="100%" viewBox="0 0 693 227" version="1.1" xmlns="http://www.w3.org/2000/svg" xmlns:xlink="http://www.w3.org/1999/xlink" xml:space="preserve" xmlns:serif="http://www.serif.com/" style="fill-rule:evenodd;clip-rule:evenodd;stroke-linejoin:round;stroke-miterlimit:2;"><g><path d="M140.11,37.12l-31.779,-31.779c-3.409,-3.409 -8.03,-5.341 -12.841,-5.341l-77.309,0c-10.037,0.038 -18.181,8.182 -18.181,18.219l0,157.572c0,10.038 8.144,18.182 18.181,18.182l109.089,0c10.037,0 18.181,-8.144 18.181,-18.182l0,-125.792c0,-4.811 -1.932,-9.47 -5.341,-12.879Zm-8.56,8.599c0.795,0.795 1.326,1.742 1.591,2.803l-36.174,0l0,-36.174c1.061,0.265 2.008,0.796 2.803,1.591l31.78,31.78Zm-4.28,136.133l-109.089,0c-3.333,0 -6.06,-2.728 -6.06,-6.061l0,-157.572c0,-3.333 2.727,-6.06 6.06,-6.06l66.665,0l0,39.393c0,5.038 4.053,9.09 9.091,9.09l39.393,0l0,115.149c0,3.333 -2.727,6.061 -6.06,6.061Zm-18.182,-92.422l0,3.03c0,2.5 -2.045,4.545 -4.545,4.545l-63.635,0c-2.5,0 -4.545,-2.045 -4.545,-4.545l0,-3.03c0,-2.5 2.045,-4.546 4.545,-4.546l63.635,0c2.5,0 4.545,2.046 4.545,4.546Zm0,24.242l0,3.03c0,2.5 -2.045,4.545 -4.545,4.545l-63.635,0c-2.5,0 -4.545,-2.045 -4.545,-4.545l0,-3.03c0,-2.5 2.045,-4.546 4.545,-4.546l63.635,0c2.5,0 4.545,2.046 4.545,4.546Zm0,24.241l0,3.031c0,2.5 -2.045,4.545 -4.545,4.545l-63.635,0c-2.5,0 -4.545,-2.045 -4.545,-4.545l0,-3.031c0,-2.5 2.045,-4.545 4.545,-4.545l63.635,0c2.5,0 4.545,2.045 4.545,4.545Z" style="fill:#007f4c;fill-rule:nonzero;"/><path d="M180.89,168.832l-10.99,-6.347c1.109,-5.986 1.109,-12.126 0,-18.112l10.99,-6.347c1.265,-0.722 1.832,-2.219 1.42,-3.612c-2.864,-9.185 -7.741,-17.493 -14.113,-24.407c-0.981,-1.058 -2.58,-1.316 -3.819,-0.594l-10.991,6.347c-4.618,-3.973 -9.933,-7.043 -15.686,-9.056l0,-12.668c0,-1.444 -1.007,-2.709 -2.426,-3.018c-9.468,-2.116 -19.169,-2.013 -28.174,0c-1.419,0.309 -2.425,1.574 -2.425,3.018l0,12.694c-5.728,2.038 -11.043,5.109 -15.687,9.056l-10.965,-6.347c-1.264,-0.722 -2.838,-0.49 -3.818,0.594c-6.373,6.888 -11.249,15.196 -14.113,24.407c-0.439,1.393 0.155,2.889 1.419,3.612l10.991,6.347c-1.11,5.985 -1.11,12.126 0,18.112l-10.991,6.347c-1.264,0.722 -1.832,2.218 -1.419,3.612c2.864,9.185 7.74,17.492 14.113,24.407c0.98,1.058 2.58,1.316 3.818,0.593l10.991,-6.347c4.618,3.974 9.933,7.044 15.687,9.056l0,12.694c0,1.445 1.006,2.709 2.425,3.019c9.469,2.115 19.17,2.012 28.174,0c1.419,-0.31 2.425,-1.574 2.425,-3.019l0,-12.694c5.728,-2.038 11.043,-5.108 15.687,-9.056l10.991,6.347c1.264,0.723 2.838,0.49 3.818,-0.593c6.373,-6.889 11.249,-15.197 14.113,-24.407c0.387,-1.419 -0.18,-2.916 -1.445,-3.638Zm-59.702,5.237c-11.378,0 -20.64,-9.262 -20.64,-20.64c0,-11.378 9.262,-20.64 20.64,-20.64c11.378,0 20.641,9.262 20.641,20.64c0,11.378 -9.263,20.64 -20.641,20.64Z" style="fill:#c72755;fill-rule:nonzero;"/><path d="M121.495,80.396l0.253,0.001l0.253,0.002l0.254,0.004l0.254,0.004l0.253,0.005l0.253,0.005l0.253,0.007l0.254,0.008l0.254,0.008l0.254,0.009l0.254,0.011l0.254,0.011l0.253,0.011l0.255,0.013l0.254,0.014l0.254,0.014l0.254,0.016l0.254,0.016l0.255,0.017l0.254,0.018l0.254,0.019l0.255,0.02l0.254,0.021l0.255,0.022l0.254,0.022l0.255,0.023l0.254,0.025l0.255,0.025l0.255,0.026l0.254,0.027l0.254,0.028l0.255,0.029l0.255,0.029l0.254,0.031l0.255,0.031l0.255,0.033l0.254,0.033l0.255,0.034l0.254,0.035l0.255,0.036l0.255,0.037l0.255,0.038l0.254,0.038l0.254,0.04l0.255,0.04l0.254,0.042l0.255,0.042l0.255,0.044l0.253,0.044l0.254,0.045l0.255,0.046l0.255,0.047l0.254,0.048l0.253,0.048l0.254,0.05l0.254,0.05l0.254,0.052l0.255,0.053l0.253,0.053l0.254,0.054l0.254,0.056l0.245,0.054l0.094,0.021l0.13,0.031l0.129,0.031l0.131,0.034l0.127,0.035l0.129,0.036l0.128,0.038l0.124,0.038l0.127,0.04l0.124,0.041l0.124,0.043l0.128,0.045l0.125,0.045l0.145,0.055l0.222,0.089l0.242,0.102l0.236,0.106l0.238,0.113l0.233,0.117l0.228,0.121l0.228,0.127l0.222,0.129l0.22,0.135l0.218,0.14l0.213,0.144l0.209,0.147l0.205,0.151l0.204,0.157l0.198,0.159l0.194,0.163l0.191,0.167l0.188,0.172l0.184,0.175l0.179,0.178l0.176,0.181l0.171,0.185l0.169,0.189l0.163,0.192l0.16,0.195l0.156,0.199l0.151,0.201l0.148,0.205l0.143,0.208l0.138,0.21l0.134,0.213l0.13,0.217l0.126,0.219l0.122,0.224l0.117,0.224l0.111,0.226l0.108,0.231l0.103,0.233l0.097,0.234l0.093,0.237l0.09,0.242l0.084,0.243l0.078,0.244l0.073,0.244l0.068,0.249l0.064,0.25l0.058,0.253l0.053,0.257l0.047,0.254l0.042,0.256l0.037,0.26l0.028,0.235l0.016,0.158l0.012,0.13l0.011,0.126l0.009,0.134l0.008,0.134l0.007,0.129l0.005,0.133l0.003,0.133l0.002,0.132l0.001,0.109l0,6.649l0.007,0.003l0.151,0.074l0.153,0.074l0.151,0.075l0.151,0.075l0.152,0.076l0.15,0.076l0.15,0.075l0.15,0.077l0.15,0.077l0.149,0.078l0.151,0.079l0.149,0.078l0.148,0.079l0.149,0.079l0.149,0.08l0.148,0.08l0.148,0.081l0.149,0.081l0.147,0.081l0.147,0.082l0.147,0.083l0.147,0.083l0.147,0.083l0.146,0.083l0.146,0.084l0.146,0.085l0.146,0.085l0.145,0.085l0.145,0.086l0.145,0.086l0.144,0.087l0.145,0.087l0.145,0.088l0.142,0.087l0.145,0.089l0.144,0.089l0.142,0.088l0.142,0.09l0.144,0.09l0.142,0.091l0.141,0.09l0.143,0.092l0.141,0.091l0.142,0.093l0.141,0.092l0.14,0.092l0.14,0.094l0.141,0.094l0.14,0.094l0.14,0.095l0.004,0.003l5.766,-3.33l0.076,-0.044l0.116,-0.065l0.121,-0.066l0.118,-0.063l0.118,-0.061l0.119,-0.06l0.123,-0.06l0.119,-0.057l0.122,-0.056l0.126,-0.057l0.12,-0.052l0.119,-0.051l0.123,-0.05l0.127,-0.05l0.123,-0.048l0.148,-0.055l0.225,-0.079l0.249,-0.082l0.253,-0.077l0.252,-0.071l0.252,-0.065l0.253,-0.059l0.253,-0.054l0.255,-0.049l0.253,-0.042l0.254,-0.038l0.255,-0.032l0.255,-0.026l0.254,-0.021l0.252,-0.015l0.256,-0.011l0.252,-0.005l0.253,0.001l0.252,0.005l0.251,0.011l0.252,0.016l0.251,0.021l0.25,0.026l0.247,0.031l0.248,0.037l0.247,0.041l0.244,0.046l0.246,0.052l0.244,0.056l0.241,0.061l0.242,0.067l0.241,0.072l0.237,0.075l0.236,0.081l0.237,0.087l0.236,0.092l0.231,0.095l0.23,0.1l0.23,0.106l0.225,0.11l0.227,0.117l0.224,0.121l0.221,0.125l0.217,0.129l0.218,0.136l0.215,0.14l0.211,0.144l0.209,0.15l0.207,0.154l0.204,0.159l0.201,0.164l0.199,0.17l0.192,0.171l0.175,0.162l0.116,0.11l0.092,0.091l0.091,0.091l0.092,0.094l0.088,0.092l0.089,0.095l0.192,0.208l0.168,0.185l0.169,0.187l0.169,0.187l0.167,0.187l0.166,0.188l0.167,0.188l0.165,0.189l0.165,0.19l0.165,0.19l0.163,0.191l0.163,0.191l0.162,0.192l0.162,0.193l0.161,0.193l0.161,0.193l0.159,0.194l0.159,0.195l0.159,0.195l0.158,0.196l0.157,0.196l0.156,0.197l0.156,0.198l0.155,0.198l0.154,0.198l0.154,0.199l0.154,0.2l0.152,0.2l0.152,0.201l0.151,0.201l0.15,0.202l0.15,0.202l0.149,0.203l0.149,0.204l0.148,0.203l0.147,0.204l0.146,0.206l0.146,0.205l0.145,0.206l0.144,0.206l0.144,0.207l0.143,0.208l0.142,0.208l0.142,0.209l0.141,0.209l0.14,0.209l0.139,0.21l0.139,0.211l0.138,0.211l0.138,0.212l0.136,0.212l0.136,0.213l0.135,0.213l0.135,0.213l0.134,0.215l0.133,0.214l0.133,0.215l0.131,0.216l0.131,0.216l0.13,0.217l0.13,0.217l0.129,0.217l0.127,0.218l0.128,0.218l0.127,0.22l0.126,0.22l0.125,0.219l0.124,0.22l0.124,0.221l0.123,0.222l0.122,0.222l0.121,0.222l0.121,0.222l0.12,0.224l0.119,0.224l0.119,0.224l0.117,0.224l0.117,0.225l0.116,0.226l0.116,0.226l0.115,0.227l0.114,0.227l0.113,0.227l0.112,0.227l0.112,0.229l0.111,0.229l0.11,0.228l0.109,0.23l0.109,0.23l0.108,0.231l0.106,0.23l0.107,0.232l0.105,0.232l0.105,0.231l0.104,0.233l0.103,0.234l0.102,0.233l0.102,0.234l0.101,0.234l0.1,0.235l0.099,0.235l0.098,0.235l0.098,0.237l0.097,0.236l0.095,0.236l0.096,0.238l0.094,0.238l0.094,0.238l0.092,0.238l0.093,0.239l0.09,0.239l0.091,0.239l0.09,0.241l0.088,0.241l0.088,0.24l0.087,0.241l0.086,0.242l0.086,0.242l0.084,0.242l0.084,0.243l0.083,0.243l0.082,0.244l0.082,0.244l0.08,0.244l0.08,0.244l0.078,0.245l0.078,0.246l0.108,0.344l0.078,0.272l0.066,0.25l0.059,0.247l0.055,0.25l0.049,0.252l0.044,0.25l0.039,0.251l0.033,0.253l0.029,0.254l0.023,0.252l0.017,0.25l0.013,0.253l0.007,0.253l0.002,0.252l-0.003,0.253l-0.008,0.251l-0.013,0.252l-0.019,0.249l-0.023,0.248l-0.029,0.251l-0.034,0.248l-0.039,0.249l-0.044,0.246l-0.048,0.244l-0.054,0.244l-0.059,0.244l-0.064,0.243l-0.068,0.239l-0.074,0.239l-0.079,0.24l-0.084,0.237l-0.088,0.233l-0.093,0.233l-0.099,0.233l-0.104,0.229l-0.107,0.227l-0.113,0.227l-0.119,0.225l-0.122,0.22l-0.126,0.218l-0.134,0.219l-0.137,0.215l-0.141,0.211l-0.147,0.21l-0.152,0.208l-0.154,0.201l-0.161,0.202l-0.166,0.199l-0.17,0.196l-0.174,0.191l-0.178,0.188l-0.184,0.186l-0.186,0.18l-0.192,0.178l-0.198,0.175l-0.198,0.169l-0.186,0.151l-0.123,0.096l-0.102,0.079l-0.109,0.082l-0.107,0.079l-0.104,0.074l-0.108,0.076l-0.11,0.075l-0.113,0.076l-0.111,0.072l-0.11,0.071l-0.113,0.07l-0.113,0.069l-0.115,0.068l-0.075,0.044l-5.778,3.336l0.001,0.013l0.012,0.167l0.011,0.168l0.011,0.168l0.01,0.168l0.01,0.167l0.009,0.168l0.009,0.168l0.008,0.167l0.008,0.169l0.008,0.168l0.007,0.168l0.006,0.168l0.006,0.167l0.006,0.169l0.005,0.168l0.004,0.167l0.005,0.169l0.003,0.168l0.003,0.168l0.003,0.167l0.002,0.169l0.002,0.168l0.001,0.167l0.001,0.169l0,0.168l0,0.168l-0.001,0.168l-0.001,0.168l-0.002,0.168l-0.002,0.168l-0.003,0.168l-0.003,0.168l-0.003,0.168l-0.005,0.169l-0.004,0.167l-0.005,0.168l-0.006,0.168l-0.006,0.168l-0.006,0.168l-0.007,0.168l-0.008,0.168l-0.008,0.168l-0.008,0.168l-0.009,0.168l-0.009,0.168l-0.01,0.167l-0.01,0.168l-0.011,0.168l-0.011,0.168l-0.012,0.167l-0.001,0.013l5.775,3.334l0.078,0.046l0.118,0.07l0.11,0.067l0.113,0.07l0.11,0.071l0.111,0.072l0.113,0.076l0.11,0.075l0.106,0.074l0.108,0.078l0.105,0.077l0.107,0.081l0.107,0.081l0.119,0.094l0.187,0.152l0.2,0.17l0.195,0.174l0.193,0.178l0.187,0.181l0.183,0.185l0.178,0.188l0.174,0.191l0.171,0.196l0.164,0.197l0.16,0.201l0.156,0.204l0.151,0.206l0.147,0.21l0.14,0.21l0.137,0.213l0.131,0.216l0.127,0.218l0.123,0.221l0.117,0.222l0.113,0.224l0.108,0.227l0.103,0.228l0.097,0.228l0.094,0.231l0.089,0.234l0.083,0.234l0.079,0.235l0.074,0.237l0.069,0.237l0.064,0.238l0.059,0.24l0.054,0.24l0.05,0.241l0.045,0.244l0.04,0.244l0.035,0.243l0.03,0.246l0.025,0.243l0.02,0.245l0.016,0.248l0.01,0.246l0.006,0.248l0.001,0.246l-0.004,0.247l-0.01,0.247l-0.014,0.247l-0.018,0.245l-0.024,0.247l-0.029,0.247l-0.034,0.247l-0.039,0.247l-0.044,0.244l-0.048,0.245l-0.054,0.242l-0.058,0.244l-0.095,0.362l-0.135,0.433l-0.079,0.247l-0.078,0.245l-0.08,0.246l-0.08,0.244l-0.082,0.245l-0.082,0.244l-0.083,0.243l-0.084,0.244l-0.084,0.243l-0.085,0.242l-0.087,0.243l-0.087,0.242l-0.088,0.241l-0.089,0.241l-0.089,0.24l-0.09,0.24l-0.091,0.24l-0.093,0.24l-0.092,0.238l-0.094,0.239l-0.094,0.238l-0.095,0.238l-0.097,0.237l-0.096,0.237l-0.098,0.236l-0.098,0.237l-0.099,0.235l-0.1,0.235l-0.101,0.235l-0.102,0.235l-0.102,0.234l-0.103,0.233l-0.104,0.233l-0.105,0.232l-0.106,0.232l-0.106,0.232l-0.107,0.231l-0.108,0.231l-0.108,0.231l-0.11,0.229l-0.11,0.23l-0.111,0.229l-0.111,0.229l-0.113,0.228l-0.113,0.227l-0.114,0.228l-0.115,0.226l-0.115,0.226l-0.116,0.226l-0.118,0.226l-0.118,0.225l-0.118,0.224l-0.119,0.224l-0.12,0.224l-0.121,0.223l-0.122,0.222l-0.122,0.222l-0.123,0.222l-0.124,0.22l-0.124,0.221l-0.126,0.221l-0.125,0.219l-0.127,0.219l-0.128,0.219l-0.128,0.218l-0.129,0.218l-0.13,0.217l-0.129,0.216l-0.132,0.217l-0.132,0.216l-0.132,0.215l-0.133,0.215l-0.134,0.214l-0.135,0.213l-0.135,0.214l-0.136,0.212l-0.137,0.213l-0.138,0.211l-0.138,0.211l-0.139,0.211l-0.14,0.21l-0.14,0.21l-0.141,0.209l-0.141,0.208l-0.143,0.209l-0.143,0.207l-0.144,0.207l-0.145,0.207l-0.145,0.206l-0.145,0.205l-0.147,0.205l-0.147,0.204l-0.148,0.204l-0.149,0.203l-0.149,0.203l-0.15,0.202l-0.151,0.202l-0.151,0.201l-0.152,0.2l-0.153,0.201l-0.153,0.199l-0.154,0.199l-0.155,0.199l-0.155,0.197l-0.156,0.197l-0.157,0.197l-0.157,0.196l-0.158,0.196l-0.159,0.195l-0.159,0.194l-0.161,0.194l-0.16,0.194l-0.161,0.192l-0.162,0.192l-0.163,0.192l-0.163,0.191l-0.164,0.19l-0.164,0.19l-0.165,0.19l-0.166,0.188l-0.167,0.188l-0.167,0.188l-0.167,0.187l-0.169,0.187l-0.169,0.185l-0.169,0.186l-0.147,0.159l-0.043,0.047l-0.092,0.099l-0.094,0.098l-0.09,0.091l-0.09,0.091l-0.098,0.096l-0.095,0.091l-0.096,0.091l-0.098,0.089l-0.096,0.087l-0.1,0.088l-0.099,0.085l-0.1,0.085l-0.121,0.099l-0.187,0.149l-0.207,0.158l-0.212,0.155l-0.215,0.149l-0.215,0.143l-0.221,0.141l-0.224,0.135l-0.223,0.128l-0.228,0.125l-0.231,0.12l-0.231,0.114l-0.233,0.109l-0.236,0.104l-0.237,0.099l-0.238,0.093l-0.241,0.088l-0.243,0.084l-0.243,0.078l-0.246,0.073l-0.247,0.067l-0.247,0.062l-0.246,0.057l-0.249,0.052l-0.251,0.046l-0.252,0.041l-0.25,0.036l-0.251,0.03l-0.253,0.026l-0.254,0.02l-0.253,0.014l-0.253,0.01l-0.255,0.004l-0.252,-0.002l-0.255,-0.006l-0.254,-0.012l-0.251,-0.017l-0.255,-0.023l-0.252,-0.027l-0.251,-0.033l-0.255,-0.039l-0.249,-0.043l-0.251,-0.049l-0.249,-0.055l-0.249,-0.059l-0.248,-0.065l-0.245,-0.07l-0.245,-0.075l-0.245,-0.081l-0.244,-0.086l-0.24,-0.091l-0.237,-0.095l-0.238,-0.101l-0.237,-0.108l-0.232,-0.11l-0.232,-0.117l-0.229,-0.122l-0.202,-0.112l-5.84,-3.373l-0.016,0.011l-0.14,0.094l-0.14,0.094l-0.139,0.093l-0.14,0.092l-0.14,0.092l-0.141,0.092l-0.14,0.091l-0.141,0.092l-0.142,0.09l-0.141,0.091l-0.142,0.089l-0.141,0.089l-0.143,0.089l-0.143,0.089l-0.142,0.088l-0.144,0.088l-0.143,0.088l-0.143,0.086l-0.144,0.087l-0.144,0.086l-0.144,0.086l-0.145,0.085l-0.144,0.085l-0.146,0.085l-0.145,0.084l-0.145,0.083l-0.145,0.083l-0.146,0.083l-0.147,0.083l-0.147,0.082l-0.145,0.082l-0.147,0.081l-0.148,0.081l-0.147,0.08l-0.147,0.08l-0.147,0.079l-0.149,0.08l-0.149,0.079l-0.147,0.077l-0.149,0.078l-0.148,0.078l-0.149,0.077l-0.15,0.077l-0.15,0.076l-0.149,0.075l-0.15,0.076l-0.151,0.075l-0.15,0.074l-0.15,0.074l-0.151,0.074l-0.009,0.004l0,6.704l-0.001,0.108l-0.002,0.129l-0.004,0.129l-0.004,0.133l-0.007,0.137l-0.008,0.129l-0.009,0.13l-0.011,0.134l-0.012,0.13l-0.016,0.153l-0.028,0.237l-0.037,0.259l-0.042,0.256l-0.048,0.257l-0.052,0.252l-0.058,0.253l-0.064,0.252l-0.068,0.249l-0.074,0.246l-0.078,0.244l-0.084,0.242l-0.088,0.24l-0.094,0.238l-0.097,0.234l-0.103,0.232l-0.109,0.233l-0.111,0.227l-0.117,0.224l-0.121,0.221l-0.125,0.219l-0.131,0.218l-0.134,0.214l-0.139,0.21l-0.143,0.208l-0.147,0.204l-0.152,0.203l-0.155,0.197l-0.159,0.195l-0.165,0.192l-0.168,0.19l-0.171,0.184l-0.176,0.182l-0.179,0.178l-0.184,0.175l-0.188,0.171l-0.19,0.166l-0.196,0.165l-0.199,0.159l-0.201,0.155l-0.207,0.152l-0.21,0.148l-0.212,0.143l-0.216,0.14l-0.222,0.136l-0.221,0.129l-0.226,0.125l-0.231,0.123l-0.234,0.117l-0.234,0.111l-0.239,0.108l-0.243,0.102l-0.22,0.088l-0.147,0.055l-0.124,0.046l-0.122,0.043l-0.128,0.044l-0.125,0.041l-0.124,0.04l-0.132,0.04l-0.128,0.038l-0.123,0.034l-0.128,0.035l-0.132,0.034l-0.127,0.032l-0.132,0.031l-0.093,0.02l-0.232,0.052l-0.242,0.053l-0.243,0.052l-0.242,0.051l-0.242,0.05l-0.242,0.05l-0.243,0.048l-0.244,0.048l-0.243,0.047l-0.244,0.046l-0.244,0.046l-0.244,0.044l-0.244,0.044l-0.245,0.043l-0.245,0.042l-0.245,0.042l-0.245,0.04l-0.245,0.04l-0.246,0.039l-0.246,0.038l-0.246,0.037l-0.246,0.037l-0.247,0.035l-0.247,0.035l-0.247,0.034l-0.246,0.033l-0.248,0.032l-0.248,0.032l-0.248,0.031l-0.248,0.029l-0.247,0.029l-0.248,0.028l-0.25,0.028l-0.248,0.026l-0.248,0.026l-0.25,0.025l-0.249,0.024l-0.249,0.023l-0.249,0.022l-0.25,0.022l-0.25,0.02l-0.25,0.02l-0.25,0.019l-0.25,0.018l-0.251,0.018l-0.251,0.016l-0.25,0.016l-0.25,0.014l-0.252,0.014l-0.252,0.014l-0.25,0.012l-0.252,0.011l-0.251,0.011l-0.251,0.009l-0.252,0.009l-0.253,0.008l-0.252,0.007l-0.252,0.007l-0.252,0.005l-0.253,0.004l-0.252,0.004l-0.253,0.003l-0.252,0.002l-0.253,0.001l-0.253,0l-0.253,0l-0.252,-0.002l-0.254,-0.002l-0.254,-0.003l-0.253,-0.004l-0.253,-0.005l-0.253,-0.006l-0.254,-0.007l-0.254,-0.007l-0.254,-0.009l-0.253,-0.009l-0.254,-0.01l-0.254,-0.011l-0.254,-0.012l-0.254,-0.013l-0.255,-0.013l-0.254,-0.015l-0.254,-0.015l-0.253,-0.017l-0.255,-0.017l-0.255,-0.018l-0.254,-0.019l-0.255,-0.02l-0.254,-0.021l-0.254,-0.021l-0.255,-0.023l-0.255,-0.023l-0.253,-0.024l-0.255,-0.025l-0.255,-0.027l-0.255,-0.027l-0.254,-0.027l-0.255,-0.029l-0.255,-0.03l-0.254,-0.03l-0.255,-0.032l-0.254,-0.032l-0.255,-0.033l-0.255,-0.035l-0.255,-0.035l-0.254,-0.036l-0.254,-0.036l-0.255,-0.038l-0.254,-0.039l-0.255,-0.039l-0.255,-0.041l-0.254,-0.041l-0.254,-0.043l-0.254,-0.043l-0.255,-0.044l-0.255,-0.045l-0.253,-0.046l-0.255,-0.047l-0.254,-0.048l-0.254,-0.049l-0.255,-0.05l-0.253,-0.05l-0.254,-0.052l-0.254,-0.052l-0.254,-0.054l-0.253,-0.054l-0.254,-0.055l-0.246,-0.055l-0.093,-0.02l-0.131,-0.031l-0.128,-0.032l-0.132,-0.034l-0.128,-0.035l-0.124,-0.035l-0.128,-0.037l-0.13,-0.04l-0.125,-0.04l-0.125,-0.041l-0.127,-0.043l-0.124,-0.044l-0.123,-0.046l-0.146,-0.055l-0.221,-0.088l-0.242,-0.102l-0.239,-0.108l-0.236,-0.111l-0.232,-0.117l-0.231,-0.122l-0.228,-0.127l-0.221,-0.129l-0.219,-0.135l-0.218,-0.14l-0.213,-0.143l-0.209,-0.148l-0.206,-0.151l-0.201,-0.155l-0.2,-0.161l-0.196,-0.164l-0.19,-0.166l-0.187,-0.171l-0.185,-0.175l-0.179,-0.178l-0.175,-0.181l-0.173,-0.187l-0.167,-0.188l-0.164,-0.191l-0.16,-0.196l-0.155,-0.197l-0.152,-0.203l-0.147,-0.204l-0.143,-0.208l-0.14,-0.212l-0.134,-0.213l-0.129,-0.215l-0.125,-0.219l-0.122,-0.223l-0.117,-0.226l-0.112,-0.227l-0.107,-0.229l-0.103,-0.234l-0.098,-0.234l-0.093,-0.237l-0.089,-0.241l-0.084,-0.242l-0.078,-0.244l-0.074,-0.248l-0.068,-0.249l-0.063,-0.248l-0.058,-0.253l-0.053,-0.254l-0.048,-0.257l-0.042,-0.258l-0.036,-0.257l-0.029,-0.235l-0.016,-0.155l-0.012,-0.134l-0.011,-0.13l-0.009,-0.13l-0.008,-0.133l-0.006,-0.129l-0.005,-0.133l-0.004,-0.133l-0.002,-0.133l-0.001,-0.108l0,-6.675l-0.007,-0.004l-0.152,-0.074l-0.151,-0.074l-0.151,-0.074l-0.152,-0.075l-0.15,-0.076l-0.15,-0.075l-0.151,-0.077l-0.151,-0.077l-0.15,-0.077l-0.15,-0.078l-0.148,-0.077l-0.15,-0.079l-0.149,-0.079l-0.149,-0.08l-0.149,-0.079l-0.148,-0.08l-0.148,-0.082l-0.148,-0.08l-0.147,-0.082l-0.148,-0.082l-0.147,-0.082l-0.146,-0.083l-0.147,-0.083l-0.146,-0.084l-0.147,-0.084l-0.145,-0.084l-0.146,-0.085l-0.146,-0.086l-0.144,-0.085l-0.146,-0.087l-0.144,-0.086l-0.144,-0.087l-0.145,-0.088l-0.144,-0.088l-0.143,-0.088l-0.143,-0.089l-0.143,-0.089l-0.144,-0.09l-0.142,-0.09l-0.143,-0.09l-0.141,-0.091l-0.142,-0.091l-0.142,-0.092l-0.141,-0.092l-0.141,-0.092l-0.141,-0.093l-0.14,-0.094l-0.14,-0.093l-0.14,-0.094l-0.14,-0.095l-0.004,-0.003l-5.763,3.328l-0.077,0.044l-0.119,0.067l-0.12,0.066l-0.118,0.062l-0.118,0.061l-0.123,0.062l-0.119,0.059l-0.12,0.057l-0.121,0.056l-0.121,0.054l-0.126,0.055l-0.122,0.052l-0.123,0.05l-0.123,0.049l-0.124,0.048l-0.146,0.054l-0.226,0.08l-0.252,0.082l-0.249,0.076l-0.252,0.071l-0.253,0.066l-0.253,0.059l-0.254,0.054l-0.254,0.048l-0.256,0.043l-0.252,0.037l-0.255,0.032l-0.255,0.027l-0.253,0.021l-0.254,0.015l-0.253,0.01l-0.254,0.005l-0.252,0l-0.253,-0.006l-0.253,-0.01l-0.25,-0.016l-0.248,-0.021l-0.25,-0.026l-0.25,-0.032l-0.247,-0.036l-0.247,-0.041l-0.247,-0.047l-0.244,-0.051l-0.243,-0.057l-0.243,-0.061l-0.241,-0.066l-0.239,-0.071l-0.239,-0.077l-0.238,-0.081l-0.234,-0.086l-0.235,-0.091l-0.233,-0.096l-0.229,-0.101l-0.229,-0.105l-0.229,-0.112l-0.226,-0.116l-0.221,-0.119l-0.221,-0.125l-0.22,-0.131l-0.216,-0.135l-0.215,-0.14l-0.212,-0.145l-0.21,-0.15l-0.205,-0.153l-0.204,-0.159l-0.201,-0.165l-0.198,-0.167l-0.196,-0.174l-0.173,-0.161l-0.112,-0.108l-0.093,-0.091l-0.092,-0.092l-0.095,-0.097l-0.091,-0.095l-0.085,-0.091l-0.191,-0.208l-0.169,-0.185l-0.169,-0.186l-0.168,-0.187l-0.167,-0.187l-0.167,-0.188l-0.166,-0.189l-0.166,-0.189l-0.165,-0.189l-0.164,-0.19l-0.164,-0.192l-0.163,-0.191l-0.162,-0.191l-0.162,-0.193l-0.161,-0.193l-0.16,-0.194l-0.16,-0.194l-0.159,-0.194l-0.158,-0.196l-0.158,-0.196l-0.157,-0.196l-0.157,-0.197l-0.156,-0.197l-0.155,-0.198l-0.154,-0.199l-0.154,-0.199l-0.153,-0.199l-0.153,-0.201l-0.152,-0.2l-0.151,-0.201l-0.15,-0.202l-0.15,-0.202l-0.149,-0.204l-0.148,-0.203l-0.148,-0.203l-0.147,-0.205l-0.147,-0.205l-0.145,-0.205l-0.146,-0.206l-0.144,-0.207l-0.144,-0.207l-0.143,-0.207l-0.142,-0.208l-0.141,-0.209l-0.141,-0.209l-0.141,-0.21l-0.139,-0.21l-0.139,-0.21l-0.138,-0.212l-0.137,-0.211l-0.137,-0.212l-0.136,-0.213l-0.135,-0.213l-0.135,-0.214l-0.133,-0.214l-0.134,-0.214l-0.132,-0.215l-0.132,-0.216l-0.131,-0.216l-0.13,-0.217l-0.129,-0.217l-0.129,-0.218l-0.128,-0.218l-0.128,-0.218l-0.126,-0.219l-0.126,-0.219l-0.125,-0.221l-0.125,-0.22l-0.123,-0.221l-0.123,-0.221l-0.123,-0.222l-0.121,-0.222l-0.121,-0.223l-0.12,-0.223l-0.119,-0.224l-0.118,-0.224l-0.118,-0.225l-0.117,-0.225l-0.116,-0.225l-0.116,-0.226l-0.114,-0.227l-0.114,-0.226l-0.113,-0.228l-0.113,-0.228l-0.112,-0.228l-0.11,-0.229l-0.11,-0.229l-0.11,-0.229l-0.108,-0.231l-0.108,-0.23l-0.107,-0.231l-0.106,-0.231l-0.106,-0.232l-0.105,-0.232l-0.104,-0.233l-0.103,-0.233l-0.102,-0.233l-0.102,-0.234l-0.1,-0.235l-0.1,-0.234l-0.099,-0.235l-0.099,-0.236l-0.097,-0.236l-0.097,-0.236l-0.096,-0.237l-0.095,-0.237l-0.095,-0.238l-0.093,-0.238l-0.093,-0.239l-0.092,-0.238l-0.091,-0.239l-0.091,-0.24l-0.089,-0.24l-0.089,-0.241l-0.088,-0.241l-0.087,-0.24l-0.086,-0.242l-0.085,-0.242l-0.085,-0.243l-0.084,-0.242l-0.083,-0.243l-0.082,-0.244l-0.081,-0.244l-0.081,-0.244l-0.079,-0.245l-0.079,-0.245l-0.078,-0.245l-0.108,-0.345l-0.078,-0.272l-0.065,-0.248l-0.06,-0.249l-0.054,-0.25l-0.05,-0.25l-0.044,-0.251l-0.039,-0.253l-0.033,-0.251l-0.028,-0.253l-0.023,-0.253l-0.018,-0.252l-0.013,-0.252l-0.007,-0.253l-0.002,-0.252l0.003,-0.251l0.008,-0.252l0.014,-0.251l0.018,-0.25l0.024,-0.251l0.028,-0.248l0.034,-0.248l0.039,-0.249l0.044,-0.245l0.048,-0.246l0.054,-0.244l0.059,-0.243l0.064,-0.243l0.069,-0.241l0.074,-0.239l0.078,-0.237l0.084,-0.237l0.089,-0.236l0.093,-0.232l0.098,-0.232l0.104,-0.23l0.108,-0.227l0.113,-0.226l0.118,-0.224l0.122,-0.221l0.128,-0.22l0.132,-0.217l0.137,-0.214l0.142,-0.213l0.147,-0.21l0.15,-0.205l0.157,-0.205l0.161,-0.202l0.164,-0.198l0.17,-0.194l0.174,-0.192l0.179,-0.189l0.183,-0.184l0.187,-0.182l0.192,-0.177l0.195,-0.174l0.201,-0.17l0.186,-0.152l0.121,-0.095l0.105,-0.081l0.107,-0.08l0.105,-0.077l0.107,-0.077l0.109,-0.077l0.11,-0.075l0.109,-0.073l0.113,-0.074l0.111,-0.07l0.11,-0.069l0.116,-0.071l0.114,-0.067l0.076,-0.044l5.778,-3.337l-0.001,-0.012l-0.012,-0.168l-0.011,-0.167l-0.011,-0.168l-0.011,-0.168l-0.009,-0.168l-0.01,-0.168l-0.009,-0.167l-0.008,-0.168l-0.008,-0.168l-0.007,-0.168l-0.007,-0.168l-0.007,-0.168l-0.006,-0.168l-0.005,-0.168l-0.005,-0.168l-0.005,-0.168l-0.004,-0.168l-0.004,-0.168l-0.003,-0.168l-0.003,-0.168l-0.002,-0.169l-0.001,-0.167l-0.002,-0.168l0,-0.168l-0.001,-0.168l0.001,-0.168l0,-0.168l0.002,-0.169l0.001,-0.167l0.002,-0.168l0.003,-0.169l0.003,-0.167l0.004,-0.169l0.004,-0.167l0.005,-0.169l0.005,-0.168l0.005,-0.167l0.006,-0.168l0.007,-0.169l0.007,-0.167l0.007,-0.168l0.008,-0.168l0.008,-0.168l0.009,-0.168l0.01,-0.168l0.009,-0.168l0.011,-0.168l0.011,-0.167l0.011,-0.168l0.012,-0.167l0.001,-0.013l-5.778,-3.336l-0.074,-0.043l-0.113,-0.067l-0.113,-0.069l-0.113,-0.07l-0.112,-0.071l-0.108,-0.071l-0.109,-0.073l-0.108,-0.074l-0.108,-0.075l-0.126,-0.091l-0.191,-0.141l-0.206,-0.16l-0.202,-0.163l-0.199,-0.169l-0.195,-0.171l-0.191,-0.176l-0.187,-0.18l-0.18,-0.181l-0.178,-0.186l-0.176,-0.192l-0.169,-0.192l-0.164,-0.196l-0.161,-0.199l-0.157,-0.203l-0.151,-0.206l-0.147,-0.206l-0.143,-0.212l-0.139,-0.215l-0.133,-0.216l-0.128,-0.218l-0.124,-0.222l-0.119,-0.223l-0.115,-0.226l-0.11,-0.229l-0.105,-0.231l-0.101,-0.234l-0.095,-0.234l-0.09,-0.236l-0.085,-0.239l-0.081,-0.24l-0.075,-0.242l-0.071,-0.245l-0.066,-0.246l-0.06,-0.247l-0.055,-0.247l-0.05,-0.251l-0.045,-0.252l-0.04,-0.251l-0.034,-0.255l-0.029,-0.255l-0.024,-0.255l-0.018,-0.256l-0.013,-0.258l-0.007,-0.258l-0.002,-0.259l0.003,-0.26l0.009,-0.259l0.015,-0.259l0.02,-0.26l0.026,-0.26l0.032,-0.26l0.034,-0.236l0.024,-0.151l0.022,-0.131l0.024,-0.131l0.025,-0.129l0.027,-0.129l0.027,-0.128l0.03,-0.129l0.03,-0.127l0.032,-0.129l0.034,-0.13l0.035,-0.126l0.036,-0.127l0.038,-0.128l0.03,-0.097l0.077,-0.246l0.078,-0.246l0.079,-0.246l0.079,-0.245l0.081,-0.245l0.081,-0.244l0.082,-0.244l0.083,-0.244l0.084,-0.244l0.084,-0.242l0.086,-0.243l0.086,-0.242l0.087,-0.242l0.088,-0.241l0.089,-0.241l0.089,-0.241l0.091,-0.24l0.091,-0.24l0.092,-0.239l0.093,-0.239l0.093,-0.239l0.094,-0.238l0.096,-0.238l0.096,-0.237l0.096,-0.237l0.098,-0.236l0.099,-0.236l0.099,-0.236l0.1,-0.235l0.101,-0.235l0.101,-0.234l0.102,-0.234l0.104,-0.233l0.104,-0.233l0.104,-0.233l0.106,-0.232l0.106,-0.232l0.107,-0.231l0.108,-0.231l0.109,-0.23l0.109,-0.23l0.11,-0.23l0.111,-0.228l0.112,-0.229l0.112,-0.228l0.113,-0.228l0.115,-0.227l0.114,-0.227l0.116,-0.226l0.116,-0.226l0.117,-0.225l0.118,-0.225l0.118,-0.225l0.12,-0.224l0.12,-0.223l0.12,-0.223l0.122,-0.222l0.122,-0.223l0.123,-0.221l0.124,-0.221l0.124,-0.221l0.126,-0.22l0.126,-0.22l0.126,-0.219l0.128,-0.218l0.128,-0.219l0.129,-0.217l0.13,-0.218l0.13,-0.216l0.131,-0.217l0.132,-0.215l0.132,-0.216l0.134,-0.214l0.133,-0.215l0.135,-0.213l0.136,-0.213l0.136,-0.213l0.136,-0.212l0.138,-0.212l0.138,-0.211l0.139,-0.211l0.14,-0.21l0.14,-0.209l0.141,-0.21l0.142,-0.208l0.142,-0.208l0.144,-0.208l0.143,-0.207l0.145,-0.206l0.145,-0.206l0.146,-0.205l0.146,-0.205l0.148,-0.205l0.148,-0.204l0.148,-0.203l0.149,-0.202l0.15,-0.203l0.151,-0.202l0.152,-0.201l0.151,-0.2l0.153,-0.2l0.154,-0.2l0.154,-0.199l0.154,-0.198l0.156,-0.198l0.156,-0.197l0.156,-0.197l0.158,-0.196l0.158,-0.195l0.158,-0.195l0.16,-0.195l0.16,-0.194l0.16,-0.193l0.161,-0.193l0.162,-0.192l0.163,-0.192l0.163,-0.19l0.164,-0.191l0.164,-0.19l0.166,-0.189l0.165,-0.189l0.167,-0.188l0.167,-0.188l0.168,-0.187l0.168,-0.186l0.169,-0.186l0.169,-0.185l0.149,-0.161l0.044,-0.048l0.088,-0.094l0.093,-0.098l0.093,-0.095l0.092,-0.093l0.094,-0.092l0.094,-0.09l0.098,-0.092l0.098,-0.09l0.096,-0.087l0.101,-0.089l0.098,-0.084l0.099,-0.083l0.123,-0.101l0.185,-0.148l0.209,-0.159l0.211,-0.154l0.215,-0.15l0.217,-0.144l0.219,-0.139l0.223,-0.135l0.226,-0.13l0.225,-0.123l0.231,-0.12l0.232,-0.115l0.233,-0.109l0.237,-0.104l0.236,-0.098l0.238,-0.094l0.242,-0.088l0.244,-0.084l0.243,-0.078l0.243,-0.072l0.247,-0.068l0.248,-0.062l0.246,-0.056l0.25,-0.052l0.25,-0.047l0.252,-0.041l0.251,-0.035l0.251,-0.031l0.253,-0.025l0.253,-0.02l0.255,-0.015l0.251,-0.009l0.253,-0.004l0.257,0.001l0.252,0.007l0.252,0.011l0.253,0.017l0.255,0.023l0.254,0.028l0.25,0.033l0.252,0.038l0.252,0.044l0.25,0.049l0.251,0.054l0.247,0.059l0.246,0.065l0.249,0.071l0.246,0.075l0.242,0.08l0.242,0.086l0.241,0.09l0.24,0.097l0.238,0.102l0.234,0.105l0.233,0.112l0.232,0.116l0.228,0.121l0.208,0.116l5.815,3.366l0.011,-0.007l0.139,-0.094l0.139,-0.093l0.141,-0.093l0.14,-0.093l0.139,-0.092l0.141,-0.092l0.141,-0.091l0.141,-0.091l0.142,-0.091l0.141,-0.09l0.141,-0.09l0.142,-0.089l0.143,-0.089l0.142,-0.089l0.143,-0.088l0.143,-0.087l0.143,-0.088l0.144,-0.087l0.144,-0.087l0.143,-0.085l0.144,-0.086l0.145,-0.086l0.145,-0.085l0.145,-0.084l0.145,-0.085l0.145,-0.083l0.145,-0.083l0.147,-0.083l0.146,-0.083l0.146,-0.082l0.147,-0.082l0.146,-0.08l0.147,-0.081l0.148,-0.081l0.147,-0.08l0.148,-0.079l0.148,-0.079l0.148,-0.079l0.148,-0.078l0.149,-0.078l0.15,-0.078l0.148,-0.076l0.149,-0.077l0.151,-0.077l0.148,-0.075l0.15,-0.075l0.151,-0.075l0.151,-0.075l0.15,-0.074l0.15,-0.073l0.01,-0.005l0,-6.699l0,-0.109l0.002,-0.132l0.004,-0.133l0.005,-0.133l0.006,-0.129l0.008,-0.134l0.01,-0.134l0.01,-0.126l0.012,-0.13l0.017,-0.158l0.028,-0.235l0.036,-0.26l0.042,-0.256l0.048,-0.254l0.053,-0.257l0.058,-0.253l0.063,-0.25l0.069,-0.249l0.073,-0.244l0.078,-0.244l0.084,-0.243l0.089,-0.242l0.093,-0.237l0.098,-0.234l0.103,-0.233l0.108,-0.231l0.111,-0.226l0.117,-0.226l0.122,-0.222l0.124,-0.218l0.131,-0.218l0.135,-0.213l0.138,-0.21l0.143,-0.208l0.148,-0.205l0.15,-0.201l0.156,-0.199l0.16,-0.195l0.164,-0.192l0.168,-0.189l0.171,-0.185l0.176,-0.181l0.18,-0.178l0.184,-0.175l0.187,-0.172l0.191,-0.167l0.195,-0.163l0.198,-0.159l0.203,-0.157l0.206,-0.151l0.209,-0.147l0.213,-0.144l0.218,-0.14l0.219,-0.135l0.222,-0.129l0.229,-0.127l0.228,-0.121l0.233,-0.117l0.238,-0.113l0.236,-0.106l0.242,-0.102l0.222,-0.089l0.145,-0.055l0.124,-0.045l0.128,-0.045l0.125,-0.043l0.123,-0.041l0.128,-0.04l0.124,-0.038l0.128,-0.038l0.129,-0.036l0.127,-0.035l0.131,-0.034l0.128,-0.031l0.131,-0.031l0.093,-0.021l0.233,-0.052l0.242,-0.052l0.242,-0.052l0.242,-0.051l0.243,-0.051l0.242,-0.049l0.243,-0.049l0.243,-0.048l0.244,-0.047l0.244,-0.046l0.243,-0.045l0.244,-0.045l0.245,-0.044l0.244,-0.043l0.245,-0.042l0.245,-0.041l0.245,-0.041l0.246,-0.04l0.246,-0.038l0.246,-0.039l0.246,-0.037l0.246,-0.036l0.246,-0.036l0.247,-0.035l0.247,-0.033l0.247,-0.034l0.248,-0.032l0.247,-0.031l0.248,-0.031l0.248,-0.03l0.248,-0.029l0.248,-0.028l0.248,-0.027l0.249,-0.027l0.249,-0.026l0.249,-0.024l0.249,-0.024l0.249,-0.024l0.25,-0.022l0.25,-0.021l0.249,-0.021l0.25,-0.02l0.25,-0.019l0.251,-0.018l0.25,-0.017l0.251,-0.017l0.251,-0.015l0.25,-0.015l0.251,-0.014l0.251,-0.013l0.252,-0.012l0.251,-0.012l0.252,-0.01l0.251,-0.01l0.252,-0.009l0.252,-0.008l0.252,-0.007l0.253,-0.006l0.251,-0.005l0.252,-0.005l0.253,-0.004l0.253,-0.003l0.253,-0.002l0.253,-0.001l0.253,0l0.252,0.001Zm-0.481,9.074l-0.222,0.001l-0.222,0.001l-0.221,0.003l-0.222,0.003l-0.221,0.004l-0.222,0.005l-0.221,0.005l-0.221,0.007l-0.221,0.007l-0.221,0.007l-0.221,0.009l-0.221,0.009l-0.221,0.01l-0.22,0.011l-0.221,0.011l-0.22,0.012l-0.22,0.013l-0.22,0.014l-0.22,0.015l-0.22,0.015l-0.219,0.016l-0.22,0.016l-0.219,0.018l-0.219,0.018l-0.219,0.019l-0.219,0.019l-0.219,0.021l-0.219,0.021l-0.218,0.021l-0.218,0.023l-0.218,0.023l-0.218,0.024l-0.218,0.025l-0.218,0.025l-0.217,0.026l-0.217,0.027l-0.217,0.028l-0.217,0.028l-0.217,0.029l-0.216,0.03l-0.217,0.031l-0.216,0.031l-0.216,0.032l-0.215,0.032l-0.216,0.034l-0.215,0.034l-0.215,0.035l-0.215,0.035l-0.215,0.036l-0.214,0.037l-0.215,0.038l-0.214,0.038l-0.213,0.039l-0.214,0.04l-0.213,0.041l-0.213,0.041l-0.213,0.042l-0.213,0.042l-0.212,0.044l-0.213,0.044l-0.211,0.044l-0.212,0.046l-0.212,0.046l-0.211,0.047l-0.033,0.007l-0.033,0.008l-0.033,0.008l-0.033,0.008l-0.032,0.009l-0.032,0.009l-0.033,0.01l-0.032,0.01l-0.032,0.01l-0.031,0.01l-0.032,0.011l-0.031,0.011l-0.032,0.012l-0.031,0.012l-0.061,0.024l-0.061,0.026l-0.06,0.027l-0.06,0.028l-0.058,0.029l-0.058,0.031l-0.057,0.032l-0.057,0.033l-0.055,0.034l-0.055,0.035l-0.054,0.036l-0.053,0.038l-0.052,0.038l-0.051,0.039l-0.051,0.041l-0.049,0.041l-0.049,0.043l-0.047,0.043l-0.047,0.045l-0.046,0.045l-0.044,0.046l-0.044,0.048l-0.043,0.048l-0.042,0.049l-0.04,0.049l-0.04,0.051l-0.039,0.051l-0.037,0.053l-0.037,0.053l-0.035,0.053l-0.035,0.055l-0.033,0.055l-0.032,0.056l-0.031,0.057l-0.029,0.057l-0.029,0.058l-0.027,0.058l-0.026,0.06l-0.025,0.059l-0.024,0.061l-0.023,0.061l-0.021,0.061l-0.02,0.062l-0.018,0.063l-0.018,0.063l-0.016,0.063l-0.015,0.064l-0.013,0.065l-0.012,0.064l-0.011,0.066l-0.009,0.065l-0.008,0.066l-0.003,0.034l-0.003,0.033l-0.003,0.033l-0.002,0.033l-0.002,0.034l-0.002,0.033l-0.001,0.034l-0.001,0.034l-0.001,0.033l0,0.034l0,12.694l-0.134,0.048l-0.134,0.048l-0.134,0.049l-0.134,0.049l-0.133,0.05l-0.134,0.05l-0.133,0.05l-0.133,0.05l-0.133,0.051l-0.133,0.052l-0.132,0.051l-0.133,0.052l-0.132,0.053l-0.132,0.053l-0.132,0.053l-0.132,0.054l-0.132,0.053l-0.131,0.055l-0.131,0.054l-0.132,0.056l-0.131,0.055l-0.13,0.056l-0.131,0.056l-0.131,0.056l-0.13,0.057l-0.13,0.058l-0.13,0.057l-0.13,0.058l-0.129,0.059l-0.13,0.058l-0.129,0.059l-0.129,0.06l-0.129,0.06l-0.129,0.06l-0.129,0.06l-0.128,0.061l-0.128,0.062l-0.128,0.061l-0.128,0.062l-0.128,0.063l-0.127,0.062l-0.128,0.063l-0.127,0.064l-0.127,0.064l-0.127,0.064l-0.126,0.064l-0.127,0.065l-0.126,0.065l-0.126,0.066l-0.126,0.066l-0.125,0.066l-0.126,0.067l-0.125,0.067l-0.125,0.067l-0.125,0.068l-0.125,0.068l-0.124,0.068l-0.125,0.069l-0.124,0.069l-0.124,0.07l-0.124,0.07l-0.123,0.07l-0.123,0.07l-0.124,0.071l-0.123,0.071l-0.122,0.072l-0.123,0.072l-0.122,0.072l-0.122,0.073l-0.122,0.073l-0.122,0.073l-0.122,0.074l-0.121,0.074l-0.121,0.074l-0.121,0.075l-0.121,0.075l-0.12,0.075l-0.121,0.076l-0.12,0.076l-0.12,0.076l-0.119,0.077l-0.12,0.077l-0.119,0.078l-0.119,0.078l-0.119,0.078l-0.119,0.078l-0.118,0.079l-0.118,0.079l-0.118,0.08l-0.118,0.079l-0.117,0.081l-0.118,0.08l-0.117,0.081l-0.117,0.081l-0.116,0.082l-0.117,0.081l-0.116,0.083l-0.116,0.082l-0.116,0.083l-0.115,0.083l-0.116,0.084l-0.115,0.083l-0.115,0.085l-0.114,0.084l-0.115,0.085l-0.114,0.085l-0.114,0.086l-0.114,0.086l-0.113,0.086l-0.113,0.086l-0.113,0.087l-0.113,0.087l-0.113,0.088l-0.112,0.088l-0.112,0.088l-0.112,0.088l-0.112,0.089l-0.111,0.089l-0.111,0.089l-0.111,0.09l-0.111,0.09l-0.11,0.091l-0.11,0.091l-0.11,0.091l-0.11,0.091l-0.109,0.092l-0.11,0.092l-0.109,0.092l-10.965,-6.347l-0.059,-0.033l-0.06,-0.032l-0.061,-0.03l-0.06,-0.029l-0.061,-0.028l-0.062,-0.026l-0.062,-0.025l-0.062,-0.023l-0.062,-0.022l-0.063,-0.021l-0.063,-0.019l-0.063,-0.018l-0.063,-0.017l-0.063,-0.015l-0.064,-0.014l-0.064,-0.012l-0.064,-0.011l-0.064,-0.01l-0.064,-0.009l-0.064,-0.007l-0.064,-0.005l-0.065,-0.005l-0.064,-0.003l-0.064,-0.001l-0.064,-0.001l-0.064,0.001l-0.064,0.003l-0.064,0.004l-0.064,0.005l-0.064,0.006l-0.063,0.008l-0.063,0.009l-0.064,0.01l-0.062,0.012l-0.063,0.013l-0.062,0.014l-0.062,0.015l-0.062,0.017l-0.062,0.019l-0.061,0.019l-0.06,0.021l-0.061,0.022l-0.059,0.024l-0.06,0.024l-0.059,0.026l-0.058,0.028l-0.058,0.028l-0.058,0.03l-0.057,0.031l-0.056,0.033l-0.056,0.034l-0.055,0.035l-0.055,0.036l-0.054,0.037l-0.053,0.039l-0.053,0.04l-0.051,0.042l-0.026,0.021l-0.026,0.021l-0.025,0.022l-0.025,0.022l-0.025,0.023l-0.025,0.022l-0.024,0.023l-0.025,0.024l-0.024,0.024l-0.024,0.023l-0.023,0.025l-0.024,0.024l-0.023,0.025l-0.023,0.026l-0.149,0.161l-0.149,0.163l-0.148,0.162l-0.147,0.164l-0.147,0.163l-0.147,0.165l-0.145,0.164l-0.145,0.166l-0.145,0.166l-0.144,0.166l-0.144,0.167l-0.143,0.167l-0.142,0.168l-0.142,0.168l-0.141,0.169l-0.141,0.169l-0.14,0.17l-0.14,0.171l-0.139,0.17l-0.138,0.172l-0.138,0.171l-0.137,0.173l-0.137,0.172l-0.136,0.174l-0.135,0.173l-0.135,0.175l-0.134,0.174l-0.134,0.176l-0.133,0.175l-0.133,0.176l-0.132,0.177l-0.131,0.177l-0.131,0.178l-0.13,0.178l-0.13,0.178l-0.129,0.179l-0.128,0.18l-0.128,0.18l-0.127,0.18l-0.127,0.181l-0.125,0.181l-0.126,0.182l-0.125,0.182l-0.124,0.183l-0.123,0.183l-0.123,0.183l-0.122,0.184l-0.122,0.185l-0.121,0.185l-0.121,0.185l-0.119,0.186l-0.119,0.186l-0.119,0.187l-0.118,0.187l-0.117,0.188l-0.117,0.188l-0.116,0.188l-0.115,0.189l-0.115,0.189l-0.114,0.19l-0.114,0.19l-0.113,0.191l-0.112,0.191l-0.112,0.191l-0.11,0.192l-0.111,0.193l-0.109,0.192l-0.109,0.194l-0.109,0.193l-0.107,0.194l-0.108,0.195l-0.106,0.194l-0.106,0.196l-0.105,0.195l-0.104,0.196l-0.104,0.197l-0.103,0.197l-0.103,0.197l-0.101,0.198l-0.101,0.198l-0.101,0.198l-0.1,0.199l-0.099,0.2l-0.098,0.199l-0.098,0.2l-0.097,0.201l-0.097,0.201l-0.095,0.201l-0.095,0.202l-0.095,0.202l-0.094,0.202l-0.093,0.203l-0.092,0.203l-0.092,0.204l-0.091,0.204l-0.09,0.204l-0.09,0.205l-0.088,0.205l-0.089,0.205l-0.087,0.206l-0.087,0.206l-0.086,0.207l-0.086,0.207l-0.084,0.207l-0.084,0.208l-0.084,0.208l-0.082,0.209l-0.082,0.208l-0.081,0.21l-0.081,0.209l-0.08,0.21l-0.079,0.21l-0.078,0.211l-0.078,0.211l-0.077,0.211l-0.076,0.212l-0.075,0.211l-0.075,0.213l-0.074,0.212l-0.074,0.213l-0.072,0.214l-0.072,0.214l-0.071,0.214l-0.071,0.214l-0.069,0.215l-0.069,0.215l-0.069,0.215l-0.067,0.216l-0.01,0.032l-0.01,0.033l-0.009,0.033l-0.009,0.033l-0.009,0.032l-0.008,0.033l-0.008,0.033l-0.007,0.033l-0.007,0.033l-0.007,0.033l-0.007,0.033l-0.006,0.033l-0.005,0.033l-0.005,0.032l-0.01,0.066l-0.008,0.066l-0.006,0.066l-0.006,0.066l-0.003,0.066l-0.003,0.065l-0.001,0.066l0.001,0.065l0.002,0.065l0.003,0.065l0.005,0.065l0.006,0.065l0.007,0.064l0.009,0.065l0.01,0.064l0.011,0.063l0.013,0.063l0.014,0.063l0.015,0.063l0.017,0.062l0.018,0.062l0.019,0.062l0.02,0.061l0.022,0.06l0.023,0.06l0.024,0.06l0.026,0.059l0.026,0.059l0.028,0.058l0.029,0.057l0.031,0.057l0.031,0.056l0.033,0.056l0.034,0.055l0.035,0.054l0.036,0.054l0.037,0.053l0.039,0.052l0.039,0.051l0.041,0.051l0.042,0.05l0.043,0.049l0.044,0.048l0.046,0.047l0.046,0.047l0.047,0.045l0.049,0.045l0.049,0.044l0.051,0.042l0.052,0.042l0.052,0.041l0.054,0.04l0.027,0.019l0.028,0.02l0.028,0.019l0.028,0.018l0.028,0.019l0.028,0.018l0.029,0.018l0.029,0.017l0.029,0.018l0.03,0.017l10.991,6.347l-0.026,0.14l-0.025,0.14l-0.025,0.141l-0.025,0.14l-0.024,0.141l-0.024,0.14l-0.023,0.141l-0.023,0.141l-0.023,0.141l-0.022,0.14l-0.022,0.141l-0.021,0.141l-0.021,0.141l-0.02,0.141l-0.02,0.141l-0.02,0.141l-0.019,0.141l-0.019,0.141l-0.019,0.141l-0.018,0.142l-0.018,0.141l-0.017,0.141l-0.017,0.142l-0.016,0.141l-0.016,0.141l-0.016,0.142l-0.015,0.141l-0.015,0.142l-0.014,0.141l-0.014,0.142l-0.014,0.142l-0.013,0.141l-0.013,0.142l-0.012,0.142l-0.012,0.141l-0.012,0.142l-0.011,0.142l-0.011,0.142l-0.01,0.141l-0.01,0.142l-0.01,0.142l-0.009,0.142l-0.009,0.142l-0.008,0.142l-0.008,0.142l-0.007,0.142l-0.007,0.142l-0.007,0.142l-0.006,0.142l-0.006,0.142l-0.006,0.142l-0.005,0.142l-0.005,0.142l-0.004,0.142l-0.004,0.142l-0.003,0.142l-0.003,0.142l-0.003,0.142l-0.002,0.142l-0.002,0.142l-0.001,0.142l-0.001,0.142l-0.001,0.143l0,0.142l0,0.142l0.001,0.142l0.001,0.142l0.001,0.142l0.002,0.142l0.002,0.142l0.003,0.142l0.003,0.142l0.003,0.143l0.004,0.142l0.004,0.142l0.005,0.142l0.005,0.142l0.006,0.142l0.006,0.142l0.006,0.142l0.007,0.142l0.007,0.142l0.007,0.142l0.008,0.142l0.008,0.142l0.009,0.141l0.009,0.142l0.01,0.142l0.01,0.142l0.01,0.142l0.011,0.142l0.011,0.141l0.012,0.142l0.012,0.142l0.012,0.142l0.013,0.141l0.013,0.142l0.014,0.141l0.014,0.142l0.014,0.142l0.015,0.141l0.015,0.142l0.016,0.141l0.016,0.141l0.016,0.142l0.017,0.141l0.017,0.141l0.018,0.142l0.018,0.141l0.019,0.141l0.019,0.141l0.019,0.141l0.02,0.141l0.02,0.141l0.02,0.141l0.021,0.141l0.021,0.141l0.022,0.141l0.022,0.141l0.023,0.141l0.023,0.14l0.023,0.141l0.024,0.141l0.024,0.14l0.025,0.141l0.025,0.14l0.025,0.14l0.026,0.141l-10.991,6.347l-0.03,0.017l-0.029,0.017l-0.029,0.018l-0.029,0.018l-0.028,0.018l-0.028,0.018l-0.028,0.019l-0.028,0.019l-0.027,0.019l-0.027,0.02l-0.027,0.019l-0.027,0.02l-0.026,0.021l-0.027,0.02l-0.051,0.042l-0.05,0.043l-0.05,0.044l-0.048,0.044l-0.047,0.046l-0.046,0.046l-0.045,0.048l-0.044,0.048l-0.042,0.049l-0.042,0.05l-0.04,0.05l-0.039,0.052l-0.039,0.052l-0.037,0.053l-0.035,0.053l-0.035,0.055l-0.033,0.055l-0.033,0.055l-0.031,0.056l-0.03,0.057l-0.029,0.058l-0.027,0.058l-0.026,0.058l-0.026,0.059l-0.023,0.06l-0.023,0.06l-0.022,0.061l-0.02,0.061l-0.019,0.061l-0.017,0.062l-0.017,0.062l-0.015,0.063l-0.014,0.063l-0.012,0.063l-0.012,0.064l-0.01,0.064l-0.009,0.064l-0.007,0.064l-0.006,0.065l-0.005,0.065l-0.003,0.065l-0.002,0.065l-0.001,0.066l0,0.065l0.002,0.066l0.003,0.066l0.005,0.065l0.006,0.066l0.008,0.066l0.008,0.066l0.01,0.066l0.012,0.066l0.013,0.065l0.014,0.066l0.016,0.066l0.017,0.065l0.019,0.066l0.067,0.215l0.069,0.215l0.069,0.214l0.069,0.214l0.071,0.214l0.071,0.213l0.072,0.214l0.072,0.212l0.074,0.213l0.074,0.212l0.075,0.212l0.075,0.211l0.076,0.211l0.077,0.211l0.078,0.211l0.078,0.21l0.079,0.21l0.08,0.209l0.081,0.209l0.081,0.209l0.082,0.208l0.082,0.208l0.084,0.208l0.084,0.207l0.084,0.207l0.086,0.207l0.086,0.206l0.087,0.206l0.087,0.205l0.089,0.206l0.088,0.204l0.09,0.205l0.09,0.204l0.091,0.204l0.092,0.203l0.092,0.203l0.093,0.202l0.094,0.203l0.095,0.201l0.095,0.202l0.095,0.201l0.097,0.2l0.097,0.201l0.098,0.2l0.098,0.199l0.099,0.199l0.1,0.199l0.101,0.198l0.101,0.198l0.101,0.198l0.103,0.197l0.103,0.197l0.104,0.196l0.104,0.196l0.105,0.196l0.106,0.195l0.106,0.195l0.108,0.194l0.107,0.194l0.109,0.194l0.109,0.193l0.109,0.192l0.111,0.193l0.11,0.192l0.112,0.191l0.112,0.191l0.113,0.191l0.114,0.19l0.114,0.19l0.115,0.189l0.115,0.189l0.116,0.189l0.117,0.188l0.117,0.187l0.118,0.188l0.119,0.187l0.119,0.186l0.119,0.186l0.121,0.185l0.121,0.185l0.122,0.185l0.122,0.184l0.123,0.184l0.123,0.183l0.124,0.183l0.125,0.183l0.126,0.182l0.125,0.181l0.127,0.181l0.127,0.181l0.128,0.18l0.128,0.18l0.129,0.179l0.13,0.179l0.13,0.178l0.131,0.178l0.131,0.177l0.132,0.177l0.133,0.177l0.133,0.176l0.134,0.175l0.134,0.175l0.135,0.175l0.135,0.174l0.136,0.174l0.137,0.173l0.137,0.172l0.138,0.173l0.138,0.171l0.139,0.172l0.14,0.17l0.14,0.171l0.141,0.169l0.141,0.17l0.142,0.168l0.142,0.169l0.143,0.168l0.144,0.167l0.144,0.167l0.145,0.166l0.145,0.166l0.145,0.165l0.147,0.165l0.147,0.165l0.147,0.163l0.148,0.164l0.149,0.163l0.149,0.162l0.023,0.024l0.023,0.025l0.024,0.024l0.023,0.024l0.024,0.023l0.025,0.023l0.049,0.046l0.049,0.044l0.051,0.043l0.051,0.042l0.053,0.041l0.052,0.039l0.054,0.038l0.054,0.037l0.055,0.036l0.056,0.035l0.056,0.033l0.057,0.032l0.057,0.031l0.058,0.03l0.058,0.029l0.059,0.027l0.059,0.026l0.06,0.024l0.06,0.024l0.061,0.022l0.061,0.021l0.062,0.02l0.061,0.018l0.063,0.017l0.062,0.016l0.063,0.014l0.063,0.014l0.063,0.011l0.063,0.011l0.064,0.009l0.064,0.008l0.063,0.007l0.064,0.006l0.065,0.004l0.064,0.002l0.064,0.002l0.064,0l0.065,-0.001l0.064,-0.003l0.064,-0.004l0.064,-0.005l0.064,-0.007l0.064,-0.008l0.064,-0.009l0.064,-0.011l0.064,-0.012l0.063,-0.014l0.063,-0.014l0.063,-0.017l0.063,-0.017l0.062,-0.019l0.062,-0.021l0.062,-0.021l0.031,-0.012l0.03,-0.012l0.031,-0.012l0.03,-0.012l0.031,-0.013l0.03,-0.013l0.03,-0.014l0.03,-0.014l0.03,-0.014l0.03,-0.015l0.029,-0.015l0.03,-0.015l0.03,-0.016l0.029,-0.016l0.029,-0.016l0.029,-0.017l10.991,-6.347l0.109,0.093l0.108,0.093l0.109,0.092l0.109,0.092l0.11,0.092l0.109,0.091l0.11,0.091l0.11,0.091l0.111,0.09l0.11,0.09l0.111,0.09l0.111,0.089l0.112,0.089l0.111,0.088l0.112,0.089l0.112,0.088l0.113,0.087l0.112,0.088l0.113,0.086l0.113,0.087l0.113,0.086l0.114,0.086l0.114,0.086l0.114,0.085l0.114,0.085l0.115,0.084l0.114,0.085l0.115,0.084l0.115,0.083l0.116,0.083l0.116,0.083l0.115,0.083l0.117,0.082l0.116,0.081l0.117,0.082l0.116,0.081l0.117,0.081l0.118,0.08l0.117,0.08l0.118,0.08l0.118,0.079l0.118,0.079l0.119,0.079l0.118,0.078l0.119,0.078l0.119,0.078l0.119,0.077l0.12,0.077l0.12,0.077l0.12,0.076l0.12,0.076l0.12,0.075l0.121,0.075l0.121,0.075l0.121,0.075l0.121,0.074l0.122,0.073l0.121,0.074l0.122,0.073l0.122,0.073l0.123,0.072l0.122,0.072l0.123,0.071l0.123,0.072l0.123,0.07l0.123,0.071l0.124,0.07l0.124,0.07l0.124,0.069l0.124,0.069l0.124,0.069l0.125,0.069l0.125,0.067l0.125,0.068l0.125,0.067l0.125,0.067l0.126,0.067l0.126,0.066l0.126,0.066l0.126,0.065l0.126,0.065l0.127,0.065l0.127,0.064l0.127,0.064l0.127,0.064l0.127,0.063l0.128,0.063l0.127,0.062l0.128,0.063l0.128,0.061l0.129,0.062l0.128,0.061l0.129,0.06l0.129,0.061l0.129,0.06l0.129,0.059l0.129,0.059l0.13,0.059l0.13,0.058l0.13,0.058l0.13,0.058l0.13,0.057l0.131,0.057l0.13,0.057l0.131,0.056l0.131,0.056l0.132,0.055l0.131,0.055l0.132,0.055l0.131,0.054l0.132,0.054l0.132,0.053l0.133,0.053l0.132,0.053l0.133,0.053l0.132,0.052l0.133,0.051l0.134,0.051l0.133,0.051l0.133,0.051l0.134,0.05l0.134,0.049l0.134,0.05l0.134,0.049l0.134,0.048l0.134,0.048l0.135,0.048l0.135,0.047l0,12.694l0,0.034l0.001,0.034l0,0.033l0.002,0.034l0.001,0.034l0.002,0.033l0.003,0.033l0.002,0.034l0.004,0.033l0.003,0.033l0.008,0.066l0.009,0.066l0.011,0.065l0.012,0.065l0.013,0.064l0.015,0.064l0.016,0.064l0.017,0.063l0.019,0.062l0.02,0.062l0.021,0.062l0.023,0.061l0.023,0.06l0.025,0.06l0.027,0.059l0.027,0.059l0.028,0.058l0.03,0.057l0.031,0.057l0.032,0.055l0.033,0.056l0.035,0.054l0.035,0.054l0.036,0.053l0.038,0.052l0.039,0.052l0.039,0.05l0.041,0.05l0.042,0.049l0.043,0.048l0.043,0.047l0.045,0.046l0.046,0.046l0.046,0.044l0.048,0.044l0.049,0.042l0.049,0.041l0.051,0.041l0.051,0.039l0.052,0.039l0.053,0.037l0.054,0.036l0.054,0.036l0.056,0.034l0.056,0.033l0.057,0.031l0.058,0.031l0.059,0.029l0.059,0.029l0.061,0.027l0.06,0.025l0.062,0.025l0.031,0.012l0.031,0.011l0.032,0.011l0.031,0.011l0.032,0.011l0.032,0.01l0.032,0.009l0.032,0.01l0.033,0.009l0.032,0.009l0.033,0.008l0.033,0.009l0.033,0.007l0.033,0.008l0.222,0.049l0.222,0.048l0.222,0.048l0.222,0.047l0.223,0.046l0.222,0.045l0.222,0.044l0.223,0.043l0.223,0.043l0.222,0.042l0.223,0.041l0.223,0.041l0.222,0.039l0.223,0.039l0.223,0.038l0.223,0.037l0.223,0.036l0.223,0.035l0.223,0.035l0.223,0.034l0.223,0.033l0.223,0.033l0.223,0.031l0.224,0.031l0.223,0.03l0.223,0.029l0.223,0.028l0.224,0.028l0.223,0.027l0.223,0.026l0.223,0.025l0.224,0.024l0.223,0.024l0.223,0.023l0.224,0.022l0.223,0.021l0.223,0.021l0.223,0.019l0.224,0.019l0.223,0.019l0.223,0.017l0.223,0.017l0.223,0.015l0.223,0.015l0.223,0.015l0.223,0.013l0.223,0.013l0.223,0.012l0.223,0.011l0.223,0.011l0.223,0.009l0.223,0.009l0.223,0.008l0.222,0.008l0.223,0.006l0.222,0.006l0.223,0.005l0.222,0.005l0.223,0.003l0.222,0.003l0.222,0.002l0.222,0.001l0.222,0.001l0.222,0l0.222,-0.001l0.222,-0.002l0.222,-0.002l0.221,-0.004l0.222,-0.004l0.221,-0.004l0.221,-0.006l0.222,-0.006l0.221,-0.007l0.221,-0.008l0.221,-0.008l0.22,-0.01l0.221,-0.01l0.221,-0.01l0.22,-0.012l0.22,-0.012l0.221,-0.013l0.22,-0.014l0.219,-0.014l0.22,-0.015l0.22,-0.016l0.219,-0.017l0.22,-0.017l0.219,-0.018l0.219,-0.019l0.219,-0.02l0.218,-0.02l0.219,-0.021l0.218,-0.022l0.219,-0.023l0.218,-0.023l0.218,-0.024l0.218,-0.024l0.217,-0.026l0.218,-0.026l0.217,-0.027l0.217,-0.028l0.217,-0.028l0.216,-0.029l0.217,-0.03l0.216,-0.03l0.216,-0.031l0.216,-0.032l0.216,-0.033l0.215,-0.033l0.216,-0.034l0.215,-0.035l0.215,-0.036l0.214,-0.036l0.215,-0.037l0.214,-0.038l0.214,-0.038l0.214,-0.039l0.213,-0.04l0.214,-0.04l0.213,-0.041l0.213,-0.042l0.212,-0.043l0.213,-0.043l0.212,-0.044l0.212,-0.045l0.212,-0.045l0.211,-0.046l0.211,-0.047l0.033,-0.008l0.033,-0.007l0.033,-0.009l0.033,-0.008l0.033,-0.009l0.032,-0.009l0.032,-0.01l0.032,-0.009l0.032,-0.01l0.032,-0.011l0.031,-0.011l0.032,-0.011l0.031,-0.011l0.031,-0.012l0.062,-0.025l0.061,-0.025l0.06,-0.027l0.059,-0.029l0.059,-0.029l0.058,-0.031l0.057,-0.031l0.056,-0.033l0.056,-0.034l0.054,-0.036l0.054,-0.036l0.053,-0.037l0.052,-0.039l0.052,-0.039l0.05,-0.041l0.05,-0.041l0.048,-0.042l0.048,-0.044l0.046,-0.044l0.046,-0.046l0.045,-0.046l0.044,-0.047l0.042,-0.048l0.042,-0.049l0.041,-0.05l0.04,-0.05l0.038,-0.052l0.038,-0.052l0.036,-0.053l0.036,-0.054l0.034,-0.054l0.033,-0.056l0.032,-0.055l0.031,-0.057l0.03,-0.057l0.028,-0.058l0.028,-0.059l0.026,-0.059l0.025,-0.06l0.024,-0.06l0.022,-0.061l0.021,-0.062l0.02,-0.062l0.019,-0.062l0.017,-0.063l0.016,-0.064l0.015,-0.064l0.013,-0.064l0.012,-0.065l0.011,-0.065l0.009,-0.066l0.008,-0.066l0.004,-0.033l0.003,-0.033l0.002,-0.034l0.003,-0.033l0.002,-0.033l0.001,-0.034l0.002,-0.034l0.001,-0.033l0,-0.034l0,-0.034l0,-12.694l0.135,-0.048l0.134,-0.048l0.133,-0.049l0.134,-0.049l0.134,-0.049l0.133,-0.05l0.133,-0.05l0.133,-0.051l0.133,-0.051l0.133,-0.051l0.133,-0.052l0.132,-0.052l0.132,-0.053l0.133,-0.052l0.132,-0.054l0.131,-0.053l0.132,-0.054l0.132,-0.054l0.131,-0.055l0.131,-0.055l0.131,-0.056l0.131,-0.055l0.13,-0.057l0.131,-0.056l0.13,-0.057l0.13,-0.057l0.13,-0.058l0.13,-0.058l0.13,-0.058l0.129,-0.059l0.13,-0.059l0.129,-0.059l0.129,-0.06l0.128,-0.06l0.129,-0.061l0.128,-0.061l0.129,-0.061l0.128,-0.062l0.128,-0.062l0.127,-0.062l0.128,-0.063l0.127,-0.063l0.127,-0.063l0.127,-0.064l0.127,-0.064l0.127,-0.065l0.126,-0.065l0.126,-0.065l0.126,-0.066l0.126,-0.065l0.126,-0.067l0.125,-0.066l0.126,-0.067l0.125,-0.068l0.125,-0.067l0.124,-0.069l0.125,-0.068l0.124,-0.069l0.124,-0.069l0.124,-0.069l0.124,-0.07l0.124,-0.07l0.123,-0.071l0.123,-0.071l0.123,-0.071l0.123,-0.072l0.122,-0.071l0.123,-0.073l0.122,-0.072l0.122,-0.073l0.122,-0.074l0.121,-0.073l0.121,-0.074l0.122,-0.075l0.121,-0.074l0.12,-0.075l0.121,-0.076l0.12,-0.076l0.12,-0.076l0.12,-0.076l0.12,-0.077l0.119,-0.077l0.119,-0.077l0.12,-0.078l0.118,-0.078l0.119,-0.079l0.118,-0.079l0.119,-0.079l0.118,-0.079l0.117,-0.08l0.118,-0.08l0.117,-0.081l0.117,-0.08l0.117,-0.082l0.117,-0.081l0.116,-0.082l0.116,-0.082l0.116,-0.083l0.116,-0.083l0.116,-0.083l0.115,-0.083l0.115,-0.084l0.115,-0.084l0.115,-0.085l0.114,-0.085l0.114,-0.085l0.114,-0.085l0.114,-0.086l0.113,-0.086l0.114,-0.087l0.113,-0.087l0.113,-0.087l0.112,-0.087l0.112,-0.088l0.113,-0.088l0.111,-0.089l0.112,-0.089l0.111,-0.089l0.112,-0.089l0.11,-0.09l0.111,-0.09l0.111,-0.09l0.11,-0.091l0.11,-0.091l0.109,-0.092l0.11,-0.091l0.109,-0.092l0.109,-0.093l10.991,6.347l0.06,0.033l0.059,0.032l0.061,0.031l0.06,0.029l0.062,0.027l0.061,0.026l0.062,0.025l0.062,0.024l0.062,0.022l0.063,0.02l0.063,0.02l0.063,0.018l0.063,0.016l0.064,0.015l0.063,0.014l0.064,0.013l0.064,0.011l0.064,0.01l0.064,0.008l0.064,0.007l0.065,0.006l0.064,0.004l0.064,0.003l0.064,0.002l0.064,0l0.065,-0.001l0.064,-0.002l0.063,-0.004l0.064,-0.005l0.064,-0.007l0.063,-0.007l0.064,-0.009l0.063,-0.011l0.063,-0.011l0.062,-0.013l0.063,-0.014l0.062,-0.016l0.061,-0.017l0.062,-0.018l0.061,-0.02l0.06,-0.021l0.061,-0.022l0.06,-0.023l0.059,-0.025l0.059,-0.026l0.059,-0.027l0.058,-0.029l0.057,-0.03l0.057,-0.031l0.056,-0.032l0.056,-0.034l0.055,-0.035l0.055,-0.036l0.054,-0.038l0.053,-0.039l0.053,-0.04l0.052,-0.041l0.025,-0.021l0.026,-0.022l0.025,-0.022l0.025,-0.022l0.025,-0.022l0.025,-0.023l0.024,-0.023l0.025,-0.023l0.024,-0.024l0.024,-0.024l0.024,-0.024l0.023,-0.025l0.023,-0.025l0.023,-0.025l0.15,-0.162l0.148,-0.162l0.148,-0.163l0.148,-0.163l0.146,-0.164l0.147,-0.164l0.145,-0.165l0.146,-0.165l0.144,-0.166l0.144,-0.166l0.144,-0.167l0.143,-0.168l0.142,-0.167l0.142,-0.169l0.141,-0.169l0.141,-0.169l0.14,-0.17l0.14,-0.17l0.139,-0.171l0.138,-0.171l0.138,-0.172l0.137,-0.172l0.137,-0.173l0.136,-0.173l0.135,-0.174l0.135,-0.174l0.135,-0.175l0.133,-0.175l0.133,-0.176l0.133,-0.176l0.132,-0.177l0.131,-0.177l0.131,-0.177l0.13,-0.178l0.13,-0.179l0.129,-0.179l0.128,-0.179l0.128,-0.18l0.127,-0.181l0.127,-0.18l0.126,-0.182l0.125,-0.181l0.125,-0.183l0.124,-0.182l0.123,-0.183l0.123,-0.184l0.123,-0.184l0.121,-0.184l0.121,-0.185l0.121,-0.186l0.12,-0.186l0.119,-0.186l0.118,-0.186l0.118,-0.188l0.118,-0.187l0.116,-0.188l0.116,-0.189l0.116,-0.189l0.114,-0.189l0.115,-0.19l0.113,-0.19l0.113,-0.19l0.112,-0.192l0.112,-0.191l0.111,-0.192l0.11,-0.192l0.11,-0.193l0.109,-0.193l0.108,-0.194l0.108,-0.194l0.107,-0.194l0.106,-0.195l0.106,-0.195l0.105,-0.196l0.104,-0.196l0.104,-0.196l0.103,-0.197l0.103,-0.198l0.102,-0.197l0.101,-0.198l0.1,-0.199l0.1,-0.199l0.099,-0.199l0.099,-0.2l0.097,-0.2l0.097,-0.2l0.097,-0.201l0.096,-0.202l0.095,-0.201l0.094,-0.202l0.094,-0.203l0.093,-0.203l0.092,-0.203l0.092,-0.203l0.091,-0.204l0.09,-0.205l0.09,-0.204l0.089,-0.206l0.088,-0.205l0.087,-0.206l0.087,-0.206l0.086,-0.207l0.086,-0.207l0.085,-0.207l0.084,-0.208l0.083,-0.208l0.083,-0.208l0.081,-0.209l0.082,-0.209l0.08,-0.21l0.08,-0.209l0.079,-0.211l0.078,-0.21l0.078,-0.211l0.077,-0.211l0.076,-0.212l0.076,-0.212l0.075,-0.212l0.074,-0.213l0.073,-0.213l0.072,-0.213l0.072,-0.214l0.072,-0.214l0.07,-0.215l0.07,-0.214l0.069,-0.215l0.068,-0.216l0.067,-0.215l0.018,-0.067l0.016,-0.067l0.014,-0.066l0.014,-0.067l0.012,-0.067l0.01,-0.067l0.009,-0.067l0.008,-0.066l0.007,-0.067l0.005,-0.067l0.004,-0.067l0.002,-0.066l0.001,-0.067l0,-0.066l-0.002,-0.066l-0.002,-0.066l-0.005,-0.066l-0.005,-0.065l-0.007,-0.065l-0.008,-0.065l-0.009,-0.065l-0.011,-0.065l-0.011,-0.064l-0.013,-0.064l-0.015,-0.063l-0.015,-0.063l-0.017,-0.063l-0.018,-0.062l-0.02,-0.062l-0.02,-0.061l-0.022,-0.061l-0.023,-0.061l-0.024,-0.059l-0.025,-0.06l-0.027,-0.059l-0.028,-0.058l-0.029,-0.058l-0.03,-0.057l-0.031,-0.056l-0.033,-0.056l-0.033,-0.055l-0.035,-0.054l-0.036,-0.054l-0.037,-0.053l-0.038,-0.052l-0.04,-0.052l-0.04,-0.051l-0.042,-0.05l-0.043,-0.049l-0.044,-0.048l-0.045,-0.047l-0.046,-0.047l-0.047,-0.045l-0.048,-0.045l-0.049,-0.044l-0.051,-0.043l-0.051,-0.042l-0.026,-0.02l-0.027,-0.02l-0.026,-0.02l-0.027,-0.02l-0.027,-0.02l-0.028,-0.019l-0.027,-0.019l-0.028,-0.019l-0.029,-0.018l-0.028,-0.018l-0.029,-0.018l-0.029,-0.018l-0.029,-0.017l-0.03,-0.017l-10.99,-6.347l0.025,-0.14l0.026,-0.141l0.025,-0.14l0.024,-0.141l0.024,-0.14l0.024,-0.141l0.024,-0.141l0.023,-0.14l0.022,-0.141l0.022,-0.141l0.022,-0.141l0.021,-0.14l0.021,-0.141l0.021,-0.141l0.02,-0.141l0.02,-0.141l0.019,-0.142l0.019,-0.141l0.018,-0.141l0.018,-0.141l0.018,-0.141l0.017,-0.142l0.017,-0.141l0.017,-0.141l0.016,-0.142l0.015,-0.141l0.015,-0.142l0.015,-0.141l0.015,-0.142l0.014,-0.141l0.013,-0.142l0.014,-0.142l0.012,-0.141l0.013,-0.142l0.012,-0.142l0.011,-0.141l0.011,-0.142l0.011,-0.142l0.011,-0.142l0.01,-0.142l0.009,-0.142l0.009,-0.141l0.009,-0.142l0.008,-0.142l0.008,-0.142l0.008,-0.142l0.007,-0.142l0.007,-0.142l0.006,-0.142l0.006,-0.142l0.005,-0.142l0.005,-0.142l0.005,-0.142l0.004,-0.142l0.004,-0.142l0.004,-0.142l0.003,-0.142l0.002,-0.143l0.002,-0.142l0.002,-0.142l0.002,-0.142l0.001,-0.142l0,-0.142l0.001,-0.142l-0.001,-0.142l0,-0.142l-0.001,-0.142l-0.002,-0.143l-0.002,-0.142l-0.002,-0.142l-0.002,-0.142l-0.003,-0.142l-0.004,-0.142l-0.004,-0.142l-0.004,-0.142l-0.005,-0.142l-0.005,-0.142l-0.005,-0.142l-0.006,-0.142l-0.006,-0.142l-0.007,-0.142l-0.007,-0.142l-0.008,-0.142l-0.008,-0.142l-0.008,-0.142l-0.009,-0.142l-0.009,-0.142l-0.009,-0.142l-0.01,-0.141l-0.011,-0.142l-0.011,-0.142l-0.011,-0.142l-0.011,-0.142l-0.012,-0.141l-0.013,-0.142l-0.012,-0.142l-0.014,-0.141l-0.013,-0.142l-0.014,-0.141l-0.015,-0.142l-0.015,-0.141l-0.015,-0.142l-0.015,-0.141l-0.016,-0.142l-0.017,-0.141l-0.017,-0.142l-0.017,-0.141l-0.018,-0.141l-0.018,-0.141l-0.018,-0.142l-0.019,-0.141l-0.019,-0.141l-0.02,-0.141l-0.02,-0.141l-0.021,-0.141l-0.021,-0.141l-0.021,-0.141l-0.022,-0.14l-0.022,-0.141l-0.022,-0.141l-0.023,-0.141l-0.024,-0.14l-0.024,-0.141l-0.024,-0.14l-0.024,-0.141l-0.025,-0.14l-0.026,-0.141l-0.025,-0.14l10.99,-6.347l0.03,-0.017l0.029,-0.017l0.029,-0.018l0.029,-0.018l0.028,-0.018l0.029,-0.019l0.028,-0.018l0.027,-0.019l0.028,-0.02l0.027,-0.019l0.027,-0.02l0.026,-0.02l0.027,-0.02l0.026,-0.021l0.051,-0.041l0.051,-0.043l0.049,-0.044l0.048,-0.045l0.047,-0.045l0.046,-0.047l0.045,-0.047l0.044,-0.048l0.043,-0.049l0.041,-0.05l0.041,-0.051l0.039,-0.051l0.038,-0.052l0.037,-0.053l0.036,-0.054l0.034,-0.054l0.034,-0.055l0.032,-0.056l0.031,-0.056l0.03,-0.057l0.029,-0.057l0.028,-0.058l0.026,-0.059l0.025,-0.059l0.024,-0.059l0.023,-0.061l0.021,-0.06l0.02,-0.061l0.019,-0.062l0.018,-0.061l0.016,-0.063l0.015,-0.062l0.014,-0.063l0.013,-0.064l0.011,-0.063l0.01,-0.064l0.009,-0.064l0.007,-0.065l0.006,-0.065l0.005,-0.064l0.004,-0.065l0.002,-0.066l0.001,-0.065l-0.001,-0.066l-0.002,-0.065l-0.003,-0.066l-0.005,-0.066l-0.006,-0.066l-0.007,-0.065l-0.009,-0.066l-0.01,-0.066l-0.012,-0.066l-0.013,-0.066l-0.014,-0.065l-0.016,-0.066l-0.017,-0.066l-0.018,-0.065l-0.068,-0.215l-0.068,-0.215l-0.069,-0.214l-0.07,-0.215l-0.07,-0.213l-0.071,-0.214l-0.072,-0.213l-0.073,-0.213l-0.073,-0.212l-0.074,-0.212l-0.075,-0.212l-0.076,-0.212l-0.076,-0.211l-0.077,-0.211l-0.077,-0.21l-0.079,-0.21l-0.079,-0.21l-0.08,-0.209l-0.08,-0.21l-0.081,-0.208l-0.082,-0.209l-0.083,-0.208l-0.083,-0.207l-0.084,-0.208l-0.085,-0.207l-0.085,-0.206l-0.087,-0.206l-0.086,-0.206l-0.088,-0.206l-0.088,-0.205l-0.089,-0.205l-0.09,-0.204l-0.09,-0.204l-0.091,-0.204l-0.092,-0.203l-0.092,-0.203l-0.093,-0.203l-0.094,-0.202l-0.094,-0.202l-0.095,-0.201l-0.096,-0.201l-0.096,-0.201l-0.097,-0.2l-0.098,-0.2l-0.099,-0.2l-0.099,-0.199l-0.1,-0.198l-0.1,-0.199l-0.101,-0.198l-0.102,-0.197l-0.102,-0.197l-0.104,-0.197l-0.103,-0.197l-0.105,-0.196l-0.105,-0.195l-0.106,-0.195l-0.106,-0.195l-0.107,-0.194l-0.108,-0.194l-0.108,-0.194l-0.109,-0.193l-0.11,-0.193l-0.11,-0.192l-0.111,-0.192l-0.112,-0.192l-0.112,-0.191l-0.113,-0.19l-0.113,-0.19l-0.114,-0.19l-0.115,-0.19l-0.116,-0.189l-0.116,-0.188l-0.116,-0.188l-0.118,-0.188l-0.118,-0.187l-0.118,-0.187l-0.119,-0.186l-0.12,-0.186l-0.12,-0.186l-0.122,-0.185l-0.121,-0.184l-0.122,-0.185l-0.123,-0.183l-0.124,-0.184l-0.124,-0.183l-0.125,-0.182l-0.125,-0.182l-0.126,-0.181l-0.127,-0.181l-0.127,-0.181l-0.128,-0.18l-0.128,-0.18l-0.129,-0.179l-0.129,-0.179l-0.131,-0.178l-0.13,-0.178l-0.132,-0.178l-0.132,-0.176l-0.132,-0.177l-0.133,-0.176l-0.134,-0.175l-0.134,-0.176l-0.135,-0.174l-0.136,-0.174l-0.136,-0.174l-0.137,-0.173l-0.137,-0.173l-0.138,-0.172l-0.138,-0.172l-0.139,-0.171l-0.14,-0.171l-0.14,-0.17l-0.14,-0.17l-0.142,-0.169l-0.141,-0.169l-0.143,-0.168l-0.143,-0.168l-0.143,-0.167l-0.144,-0.167l-0.145,-0.167l-0.145,-0.165l-0.146,-0.166l-0.146,-0.165l-0.147,-0.164l-0.148,-0.164l-0.148,-0.163l-0.148,-0.163l-0.149,-0.162l-0.023,-0.025l-0.024,-0.024l-0.023,-0.024l-0.024,-0.024l-0.024,-0.024l-0.024,-0.023l-0.049,-0.045l-0.05,-0.044l-0.051,-0.043l-0.051,-0.042l-0.052,-0.041l-0.053,-0.04l-0.053,-0.038l-0.055,-0.037l-0.055,-0.036l-0.055,-0.034l-0.056,-0.034l-0.057,-0.032l-0.057,-0.031l-0.058,-0.029l-0.059,-0.029l-0.059,-0.027l-0.059,-0.026l-0.06,-0.025l-0.06,-0.023l-0.061,-0.022l-0.061,-0.021l-0.061,-0.02l-0.062,-0.018l-0.062,-0.017l-0.063,-0.016l-0.062,-0.015l-0.063,-0.013l-0.063,-0.012l-0.064,-0.011l-0.063,-0.009l-0.064,-0.008l-0.064,-0.007l-0.064,-0.005l-0.064,-0.004l-0.064,-0.003l-0.065,-0.001l-0.064,0l-0.064,0.001l-0.064,0.003l-0.065,0.004l-0.064,0.005l-0.064,0.006l-0.064,0.008l-0.064,0.01l-0.064,0.011l-0.063,0.012l-0.063,0.013l-0.064,0.015l-0.063,0.016l-0.062,0.018l-0.063,0.019l-0.062,0.02l-0.061,0.022l-0.031,0.012l-0.031,0.011l-0.03,0.012l-0.031,0.013l-0.03,0.013l-0.03,0.013l-0.031,0.013l-0.03,0.014l-0.03,0.015l-0.029,0.014l-0.03,0.015l-0.03,0.016l-0.029,0.015l-0.029,0.016l-0.03,0.017l-0.029,0.016l-10.991,6.347l-0.108,-0.093l-0.109,-0.092l-0.109,-0.093l-0.109,-0.092l-0.109,-0.091l-0.11,-0.091l-0.11,-0.091l-0.11,-0.091l-0.11,-0.09l-0.111,-0.09l-0.111,-0.09l-0.111,-0.089l-0.111,-0.089l-0.112,-0.089l-0.112,-0.088l-0.112,-0.088l-0.112,-0.088l-0.113,-0.087l-0.113,-0.087l-0.113,-0.086l-0.113,-0.087l-0.113,-0.086l-0.114,-0.085l-0.114,-0.085l-0.115,-0.085l-0.114,-0.085l-0.115,-0.084l-0.115,-0.084l-0.115,-0.083l-0.115,-0.084l-0.116,-0.082l-0.116,-0.083l-0.116,-0.082l-0.117,-0.082l-0.116,-0.081l-0.117,-0.081l-0.117,-0.081l-0.117,-0.081l-0.118,-0.08l-0.118,-0.079l-0.118,-0.08l-0.118,-0.079l-0.118,-0.078l-0.119,-0.079l-0.119,-0.078l-0.119,-0.077l-0.119,-0.078l-0.12,-0.077l-0.119,-0.076l-0.12,-0.076l-0.12,-0.076l-0.121,-0.076l-0.121,-0.075l-0.12,-0.075l-0.121,-0.074l-0.122,-0.074l-0.121,-0.074l-0.122,-0.073l-0.122,-0.073l-0.122,-0.073l-0.122,-0.072l-0.123,-0.072l-0.122,-0.072l-0.123,-0.071l-0.124,-0.071l-0.123,-0.07l-0.123,-0.071l-0.124,-0.069l-0.124,-0.07l-0.124,-0.069l-0.125,-0.069l-0.124,-0.068l-0.125,-0.068l-0.125,-0.067l-0.125,-0.068l-0.126,-0.067l-0.125,-0.066l-0.126,-0.066l-0.126,-0.066l-0.126,-0.066l-0.127,-0.065l-0.126,-0.064l-0.127,-0.065l-0.127,-0.064l-0.127,-0.063l-0.128,-0.063l-0.127,-0.063l-0.128,-0.063l-0.128,-0.062l-0.128,-0.062l-0.128,-0.061l-0.129,-0.061l-0.128,-0.061l-0.129,-0.06l-0.129,-0.06l-0.13,-0.059l-0.129,-0.06l-0.13,-0.058l-0.129,-0.059l-0.13,-0.058l-0.131,-0.057l-0.13,-0.058l-0.13,-0.057l-0.131,-0.056l-0.131,-0.056l-0.131,-0.056l-0.131,-0.055l-0.132,-0.055l-0.131,-0.055l-0.132,-0.054l-0.132,-0.054l-0.132,-0.054l-0.132,-0.053l-0.133,-0.053l-0.132,-0.052l-0.133,-0.052l-0.133,-0.051l-0.133,-0.052l-0.133,-0.051l-0.134,-0.05l-0.133,-0.05l-0.134,-0.05l-0.134,-0.049l-0.134,-0.049l-0.135,-0.048l-0.134,-0.049l-0.135,-0.047l-0.134,-0.048l0,-12.668l-0.001,-0.034l0,-0.033l-0.001,-0.034l-0.001,-0.034l-0.002,-0.033l-0.002,-0.034l-0.002,-0.033l-0.003,-0.033l-0.003,-0.033l-0.004,-0.034l-0.007,-0.066l-0.01,-0.065l-0.01,-0.066l-0.012,-0.064l-0.014,-0.065l-0.015,-0.064l-0.016,-0.063l-0.017,-0.063l-0.019,-0.063l-0.02,-0.062l-0.021,-0.061l-0.022,-0.061l-0.024,-0.061l-0.025,-0.059l-0.026,-0.06l-0.027,-0.058l-0.029,-0.058l-0.03,-0.057l-0.031,-0.057l-0.032,-0.056l-0.033,-0.055l-0.034,-0.055l-0.036,-0.053l-0.036,-0.053l-0.038,-0.053l-0.038,-0.051l-0.04,-0.051l-0.041,-0.049l-0.041,-0.049l-0.043,-0.048l-0.044,-0.048l-0.045,-0.046l-0.045,-0.045l-0.047,-0.045l-0.048,-0.043l-0.048,-0.043l-0.05,-0.041l-0.05,-0.041l-0.051,-0.039l-0.053,-0.038l-0.053,-0.038l-0.053,-0.036l-0.055,-0.035l-0.056,-0.034l-0.056,-0.033l-0.057,-0.032l-0.058,-0.031l-0.059,-0.029l-0.059,-0.028l-0.06,-0.027l-0.061,-0.026l-0.062,-0.024l-0.031,-0.012l-0.031,-0.012l-0.031,-0.011l-0.032,-0.011l-0.032,-0.01l-0.032,-0.01l-0.032,-0.01l-0.032,-0.01l-0.032,-0.009l-0.033,-0.009l-0.033,-0.008l-0.032,-0.008l-0.033,-0.008l-0.034,-0.007l-0.222,-0.05l-0.222,-0.048l-0.222,-0.047l-0.222,-0.047l-0.222,-0.046l-0.223,-0.045l-0.222,-0.045l-0.223,-0.043l-0.222,-0.043l-0.223,-0.042l-0.222,-0.041l-0.223,-0.04l-0.223,-0.04l-0.223,-0.038l-0.223,-0.038l-0.223,-0.037l-0.222,-0.037l-0.223,-0.035l-0.224,-0.035l-0.223,-0.034l-0.223,-0.033l-0.223,-0.032l-0.223,-0.032l-0.223,-0.03l-0.223,-0.03l-0.224,-0.029l-0.223,-0.029l-0.223,-0.027l-0.223,-0.027l-0.224,-0.026l-0.223,-0.025l-0.223,-0.025l-0.224,-0.023l-0.223,-0.023l-0.223,-0.022l-0.223,-0.022l-0.224,-0.02l-0.223,-0.02l-0.223,-0.019l-0.223,-0.018l-0.223,-0.018l-0.224,-0.016l-0.223,-0.016l-0.223,-0.015l-0.223,-0.014l-0.223,-0.014l-0.223,-0.013l-0.223,-0.012l-0.223,-0.011l-0.223,-0.01l-0.223,-0.01l-0.222,-0.009l-0.223,-0.008l-0.223,-0.007l-0.222,-0.007l-0.223,-0.006l-0.222,-0.005l-0.223,-0.004l-0.222,-0.004l-0.222,-0.003l-0.223,-0.002l-0.222,-0.001l-0.222,-0.001l-0.222,0.001Zm0.308,43.319l0.133,0.001l0.132,0.002l0.133,0.003l0.133,0.004l0.132,0.005l0.132,0.005l0.132,0.006l0.131,0.008l0.132,0.008l0.131,0.008l0.131,0.01l0.13,0.01l0.131,0.011l0.13,0.013l0.13,0.012l0.13,0.014l0.129,0.014l0.13,0.016l0.129,0.016l0.129,0.017l0.128,0.017l0.129,0.019l0.128,0.019l0.128,0.02l0.127,0.021l0.127,0.021l0.127,0.023l0.127,0.023l0.127,0.024l0.126,0.024l0.126,0.026l0.126,0.026l0.125,0.027l0.125,0.028l0.125,0.028l0.125,0.029l0.124,0.03l0.124,0.031l0.124,0.032l0.123,0.032l0.123,0.033l0.123,0.034l0.122,0.034l0.122,0.035l0.122,0.036l0.122,0.037l0.121,0.037l0.121,0.038l0.121,0.039l0.12,0.04l0.12,0.04l0.12,0.041l0.119,0.042l0.119,0.042l0.119,0.043l0.118,0.044l0.118,0.045l0.118,0.045l0.117,0.046l0.117,0.047l0.116,0.047l0.117,0.048l0.115,0.049l0.116,0.049l0.115,0.05l0.115,0.051l0.114,0.051l0.114,0.052l0.114,0.053l0.113,0.053l0.113,0.055l0.113,0.054l0.112,0.056l0.112,0.056l0.111,0.057l0.111,0.057l0.111,0.058l0.11,0.059l0.11,0.059l0.11,0.06l0.109,0.061l0.108,0.061l0.109,0.062l0.108,0.062l0.107,0.063l0.107,0.064l0.107,0.065l0.106,0.065l0.106,0.065l0.105,0.067l0.105,0.067l0.104,0.067l0.104,0.068l0.104,0.069l0.103,0.069l0.103,0.07l0.102,0.071l0.102,0.071l0.101,0.072l0.101,0.072l0.101,0.073l0.1,0.073l0.1,0.074l0.099,0.075l0.098,0.075l0.099,0.076l0.097,0.076l0.098,0.077l0.096,0.078l0.097,0.078l0.096,0.079l0.095,0.079l0.095,0.08l0.094,0.08l0.094,0.081l0.094,0.081l0.093,0.082l0.092,0.083l0.092,0.083l0.091,0.084l0.091,0.084l0.091,0.085l0.09,0.085l0.089,0.086l0.089,0.086l0.088,0.087l0.088,0.087l0.088,0.088l0.086,0.088l0.087,0.089l0.085,0.09l0.086,0.089l0.084,0.091l0.085,0.091l0.083,0.091l0.083,0.092l0.083,0.093l0.082,0.093l0.081,0.093l0.081,0.094l0.08,0.094l0.08,0.095l0.08,0.096l0.078,0.095l0.078,0.097l0.078,0.097l0.077,0.097l0.076,0.098l0.076,0.098l0.075,0.098l0.075,0.1l0.074,0.099l0.073,0.1l0.073,0.101l0.073,0.101l0.071,0.101l0.072,0.102l0.07,0.102l0.07,0.103l0.069,0.103l0.069,0.104l0.068,0.104l0.068,0.104l0.067,0.105l0.066,0.106l0.065,0.105l0.066,0.107l0.064,0.106l0.064,0.107l0.063,0.108l0.062,0.108l0.062,0.108l0.062,0.108l0.06,0.109l0.06,0.11l0.06,0.11l0.058,0.11l0.058,0.111l0.058,0.111l0.056,0.111l0.056,0.112l0.056,0.112l0.055,0.113l0.054,0.113l0.053,0.113l0.053,0.114l0.052,0.114l0.051,0.114l0.051,0.115l0.05,0.115l0.05,0.116l0.048,0.116l0.048,0.116l0.048,0.116l0.046,0.117l0.046,0.118l0.045,0.117l0.045,0.118l0.044,0.119l0.043,0.118l0.042,0.119l0.042,0.12l0.041,0.119l0.04,0.12l0.04,0.12l0.039,0.121l0.038,0.121l0.037,0.121l0.037,0.122l0.036,0.122l0.035,0.122l0.035,0.122l0.033,0.123l0.033,0.123l0.033,0.124l0.031,0.123l0.031,0.124l0.03,0.125l0.029,0.124l0.029,0.125l0.027,0.125l0.027,0.126l0.026,0.125l0.026,0.126l0.025,0.126l0.023,0.127l0.024,0.127l0.022,0.127l0.022,0.127l0.02,0.128l0.02,0.128l0.02,0.128l0.018,0.128l0.018,0.129l0.016,0.128l0.017,0.129l0.015,0.13l0.014,0.129l0.014,0.13l0.013,0.13l0.012,0.13l0.011,0.131l0.01,0.131l0.01,0.13l0.009,0.132l0.008,0.131l0.007,0.132l0.006,0.131l0.005,0.132l0.005,0.133l0.004,0.132l0.003,0.133l0.002,0.133l0.001,0.133l0.001,0.133l-0.001,0.133l-0.001,0.133l-0.002,0.133l-0.003,0.133l-0.004,0.132l-0.005,0.132l-0.005,0.132l-0.006,0.132l-0.007,0.132l-0.008,0.131l-0.009,0.131l-0.01,0.131l-0.01,0.131l-0.011,0.13l-0.012,0.131l-0.013,0.13l-0.014,0.13l-0.014,0.129l-0.015,0.129l-0.017,0.129l-0.016,0.129l-0.018,0.129l-0.018,0.128l-0.02,0.128l-0.02,0.128l-0.02,0.128l-0.022,0.127l-0.022,0.127l-0.024,0.127l-0.023,0.126l-0.025,0.127l-0.026,0.126l-0.026,0.125l-0.027,0.126l-0.027,0.125l-0.029,0.125l-0.029,0.124l-0.03,0.124l-0.031,0.124l-0.031,0.124l-0.033,0.124l-0.033,0.123l-0.033,0.122l-0.035,0.123l-0.035,0.122l-0.036,0.122l-0.037,0.122l-0.037,0.121l-0.038,0.121l-0.039,0.12l-0.04,0.121l-0.04,0.12l-0.041,0.119l-0.042,0.12l-0.042,0.119l-0.043,0.118l-0.044,0.119l-0.045,0.117l-0.045,0.118l-0.046,0.117l-0.046,0.117l-0.048,0.117l-0.048,0.116l-0.048,0.116l-0.05,0.116l-0.05,0.115l-0.051,0.115l-0.051,0.114l-0.052,0.114l-0.053,0.114l-0.053,0.113l-0.054,0.113l-0.055,0.113l-0.056,0.112l-0.056,0.112l-0.056,0.111l-0.058,0.111l-0.058,0.111l-0.058,0.11l-0.06,0.11l-0.06,0.109l-0.06,0.109l-0.062,0.109l-0.062,0.108l-0.062,0.108l-0.063,0.108l-0.064,0.107l-0.064,0.106l-0.066,0.106l-0.065,0.106l-0.066,0.105l-0.067,0.105l-0.068,0.105l-0.068,0.104l-0.069,0.104l-0.069,0.103l-0.07,0.102l-0.07,0.103l-0.072,0.102l-0.071,0.101l-0.073,0.101l-0.073,0.101l-0.073,0.1l-0.074,0.099l-0.075,0.099l-0.075,0.099l-0.076,0.098l-0.076,0.098l-0.077,0.097l-0.078,0.097l-0.078,0.096l-0.078,0.096l-0.08,0.096l-0.08,0.094l-0.08,0.095l-0.081,0.094l-0.081,0.093l-0.082,0.093l-0.083,0.093l-0.083,0.092l-0.083,0.091l-0.085,0.091l-0.084,0.09l-0.086,0.09l-0.085,0.09l-0.087,0.089l-0.086,0.088l-0.088,0.088l-0.088,0.087l-0.088,0.087l-0.089,0.086l-0.089,0.086l-0.09,0.085l-0.091,0.085l-0.091,0.084l-0.091,0.084l-0.092,0.083l-0.092,0.082l-0.093,0.082l-0.094,0.082l-0.094,0.081l-0.094,0.08l-0.095,0.08l-0.095,0.079l-0.096,0.079l-0.097,0.078l-0.096,0.077l-0.098,0.077l-0.097,0.077l-0.099,0.076l-0.098,0.075l-0.099,0.074l-0.1,0.075l-0.1,0.073l-0.101,0.073l-0.101,0.072l-0.101,0.072l-0.102,0.071l-0.102,0.071l-0.103,0.07l-0.103,0.069l-0.104,0.069l-0.104,0.068l-0.104,0.067l-0.105,0.067l-0.105,0.066l-0.106,0.066l-0.106,0.065l-0.107,0.065l-0.107,0.063l-0.107,0.063l-0.108,0.063l-0.109,0.062l-0.108,0.061l-0.109,0.061l-0.11,0.06l-0.11,0.059l-0.11,0.059l-0.111,0.058l-0.111,0.057l-0.111,0.057l-0.112,0.056l-0.112,0.055l-0.113,0.055l-0.113,0.054l-0.113,0.054l-0.114,0.053l-0.114,0.052l-0.114,0.051l-0.115,0.051l-0.115,0.05l-0.116,0.049l-0.115,0.049l-0.117,0.048l-0.116,0.047l-0.117,0.047l-0.117,0.046l-0.118,0.045l-0.118,0.045l-0.118,0.043l-0.119,0.044l-0.119,0.042l-0.119,0.042l-0.12,0.041l-0.12,0.04l-0.12,0.039l-0.121,0.039l-0.121,0.038l-0.121,0.038l-0.122,0.037l-0.122,0.035l-0.122,0.036l-0.122,0.034l-0.123,0.034l-0.123,0.033l-0.123,0.032l-0.124,0.032l-0.124,0.03l-0.124,0.03l-0.125,0.03l-0.125,0.028l-0.125,0.028l-0.125,0.027l-0.126,0.026l-0.126,0.025l-0.126,0.025l-0.127,0.024l-0.127,0.023l-0.127,0.023l-0.127,0.021l-0.127,0.021l-0.128,0.02l-0.128,0.019l-0.129,0.019l-0.128,0.017l-0.129,0.017l-0.129,0.016l-0.13,0.015l-0.129,0.015l-0.13,0.013l-0.13,0.013l-0.13,0.012l-0.131,0.012l-0.13,0.01l-0.131,0.01l-0.131,0.008l-0.132,0.008l-0.131,0.007l-0.132,0.007l-0.132,0.005l-0.132,0.005l-0.133,0.003l-0.133,0.003l-0.132,0.003l-0.133,0.001l-0.134,0l-0.133,0l-0.133,-0.001l-0.133,-0.003l-0.132,-0.003l-0.133,-0.003l-0.132,-0.005l-0.132,-0.005l-0.132,-0.007l-0.132,-0.007l-0.131,-0.008l-0.131,-0.008l-0.131,-0.01l-0.131,-0.01l-0.13,-0.012l-0.13,-0.012l-0.131,-0.013l-0.129,-0.013l-0.13,-0.015l-0.129,-0.015l-0.129,-0.016l-0.129,-0.017l-0.129,-0.017l-0.128,-0.019l-0.128,-0.019l-0.128,-0.02l-0.127,-0.021l-0.128,-0.021l-0.127,-0.023l-0.127,-0.023l-0.126,-0.024l-0.126,-0.025l-0.126,-0.025l-0.126,-0.026l-0.125,-0.027l-0.126,-0.028l-0.124,-0.028l-0.125,-0.03l-0.124,-0.03l-0.124,-0.03l-0.124,-0.032l-0.123,-0.032l-0.123,-0.033l-0.123,-0.034l-0.123,-0.034l-0.122,-0.036l-0.122,-0.035l-0.121,-0.037l-0.122,-0.038l-0.12,-0.038l-0.121,-0.039l-0.12,-0.039l-0.12,-0.04l-0.12,-0.041l-0.119,-0.042l-0.119,-0.042l-0.119,-0.044l-0.118,-0.043l-0.118,-0.045l-0.118,-0.045l-0.117,-0.046l-0.117,-0.047l-0.117,-0.047l-0.116,-0.048l-0.116,-0.049l-0.115,-0.049l-0.116,-0.05l-0.114,-0.051l-0.115,-0.051l-0.114,-0.052l-0.114,-0.053l-0.113,-0.054l-0.113,-0.054l-0.112,-0.055l-0.113,-0.055l-0.111,-0.056l-0.112,-0.057l-0.111,-0.057l-0.111,-0.058l-0.11,-0.059l-0.11,-0.059l-0.109,-0.06l-0.109,-0.061l-0.109,-0.061l-0.108,-0.062l-0.108,-0.063l-0.107,-0.063l-0.107,-0.063l-0.107,-0.065l-0.106,-0.065l-0.106,-0.066l-0.105,-0.066l-0.105,-0.067l-0.105,-0.067l-0.104,-0.068l-0.103,-0.069l-0.104,-0.069l-0.102,-0.07l-0.103,-0.071l-0.101,-0.071l-0.102,-0.072l-0.101,-0.072l-0.1,-0.073l-0.1,-0.073l-0.1,-0.075l-0.099,-0.074l-0.099,-0.075l-0.098,-0.076l-0.098,-0.077l-0.097,-0.077l-0.097,-0.077l-0.096,-0.078l-0.096,-0.079l-0.095,-0.079l-0.095,-0.08l-0.095,-0.08l-0.094,-0.081l-0.093,-0.082l-0.093,-0.082l-0.092,-0.082l-0.092,-0.083l-0.092,-0.084l-0.091,-0.084l-0.09,-0.085l-0.09,-0.085l-0.089,-0.086l-0.089,-0.086l-0.089,-0.087l-0.088,-0.087l-0.087,-0.088l-0.087,-0.088l-0.086,-0.089l-0.086,-0.09l-0.085,-0.09l-0.085,-0.09l-0.084,-0.091l-0.084,-0.091l-0.083,-0.092l-0.082,-0.093l-0.082,-0.093l-0.082,-0.093l-0.081,-0.094l-0.08,-0.095l-0.08,-0.094l-0.079,-0.096l-0.079,-0.096l-0.078,-0.096l-0.077,-0.097l-0.077,-0.097l-0.077,-0.098l-0.075,-0.098l-0.076,-0.099l-0.074,-0.099l-0.074,-0.099l-0.074,-0.1l-0.073,-0.101l-0.072,-0.101l-0.072,-0.101l-0.071,-0.102l-0.07,-0.103l-0.07,-0.102l-0.07,-0.103l-0.068,-0.104l-0.069,-0.104l-0.067,-0.105l-0.067,-0.105l-0.066,-0.105l-0.066,-0.106l-0.065,-0.106l-0.064,-0.106l-0.064,-0.107l-0.063,-0.108l-0.063,-0.108l-0.062,-0.108l-0.061,-0.109l-0.061,-0.109l-0.06,-0.109l-0.059,-0.11l-0.059,-0.11l-0.058,-0.111l-0.057,-0.111l-0.057,-0.111l-0.056,-0.112l-0.055,-0.112l-0.055,-0.113l-0.054,-0.113l-0.054,-0.113l-0.052,-0.114l-0.052,-0.114l-0.052,-0.114l-0.051,-0.115l-0.05,-0.115l-0.049,-0.116l-0.049,-0.116l-0.048,-0.116l-0.047,-0.117l-0.047,-0.117l-0.046,-0.117l-0.045,-0.118l-0.044,-0.117l-0.044,-0.119l-0.043,-0.118l-0.043,-0.119l-0.041,-0.12l-0.041,-0.119l-0.041,-0.12l-0.039,-0.121l-0.039,-0.12l-0.038,-0.121l-0.038,-0.121l-0.036,-0.122l-0.036,-0.122l-0.035,-0.122l-0.035,-0.123l-0.034,-0.122l-0.033,-0.123l-0.032,-0.124l-0.031,-0.124l-0.031,-0.124l-0.03,-0.124l-0.029,-0.124l-0.029,-0.125l-0.028,-0.125l-0.027,-0.126l-0.026,-0.125l-0.025,-0.126l-0.025,-0.127l-0.024,-0.126l-0.023,-0.127l-0.022,-0.127l-0.022,-0.127l-0.021,-0.128l-0.02,-0.128l-0.019,-0.128l-0.018,-0.128l-0.018,-0.129l-0.017,-0.129l-0.016,-0.129l-0.015,-0.129l-0.015,-0.129l-0.013,-0.13l-0.013,-0.13l-0.012,-0.131l-0.011,-0.13l-0.011,-0.131l-0.009,-0.131l-0.009,-0.131l-0.008,-0.131l-0.007,-0.132l-0.006,-0.132l-0.006,-0.132l-0.004,-0.132l-0.004,-0.132l-0.003,-0.133l-0.002,-0.133l-0.002,-0.133l0,-0.133l0,-0.133l0.002,-0.133l0.002,-0.133l0.003,-0.133l0.004,-0.132l0.004,-0.133l0.006,-0.132l0.006,-0.131l0.007,-0.132l0.008,-0.131l0.009,-0.132l0.009,-0.13l0.011,-0.131l0.011,-0.131l0.012,-0.13l0.013,-0.13l0.013,-0.13l0.015,-0.129l0.015,-0.13l0.016,-0.129l0.017,-0.128l0.018,-0.129l0.018,-0.128l0.019,-0.128l0.02,-0.128l0.021,-0.128l0.022,-0.127l0.022,-0.127l0.023,-0.127l0.024,-0.127l0.025,-0.126l0.025,-0.126l0.026,-0.125l0.027,-0.126l0.028,-0.125l0.029,-0.125l0.029,-0.124l0.03,-0.125l0.031,-0.124l0.031,-0.123l0.032,-0.124l0.033,-0.123l0.034,-0.123l0.035,-0.122l0.035,-0.122l0.036,-0.122l0.036,-0.122l0.038,-0.121l0.038,-0.121l0.039,-0.121l0.039,-0.12l0.041,-0.12l0.041,-0.119l0.041,-0.12l0.043,-0.119l0.043,-0.118l0.044,-0.119l0.044,-0.118l0.045,-0.117l0.046,-0.118l0.047,-0.117l0.047,-0.116l0.048,-0.116l0.049,-0.116l0.049,-0.116l0.05,-0.115l0.051,-0.115l0.052,-0.114l0.052,-0.114l0.052,-0.114l0.054,-0.113l0.054,-0.113l0.055,-0.113l0.055,-0.112l0.056,-0.112l0.057,-0.111l0.057,-0.111l0.058,-0.111l0.059,-0.11l0.059,-0.11l0.06,-0.11l0.061,-0.109l0.061,-0.108l0.062,-0.108l0.063,-0.108l0.063,-0.108l0.064,-0.107l0.064,-0.106l0.065,-0.107l0.066,-0.105l0.066,-0.106l0.067,-0.105l0.067,-0.104l0.069,-0.104l0.068,-0.104l0.07,-0.103l0.07,-0.103l0.07,-0.102l0.071,-0.102l0.072,-0.101l0.072,-0.101l0.073,-0.101l0.074,-0.1l0.074,-0.099l0.074,-0.1l0.076,-0.098l0.075,-0.098l0.077,-0.098l0.077,-0.097l0.077,-0.097l0.078,-0.097l0.079,-0.095l0.079,-0.096l0.08,-0.095l0.08,-0.094l0.081,-0.094l0.082,-0.093l0.082,-0.093l0.082,-0.093l0.083,-0.092l0.084,-0.091l0.084,-0.091l0.085,-0.091l0.085,-0.089l0.086,-0.09l0.086,-0.089l0.087,-0.088l0.087,-0.088l0.088,-0.087l0.089,-0.087l0.089,-0.086l0.089,-0.086l0.09,-0.085l0.09,-0.085l0.091,-0.084l0.092,-0.084l0.092,-0.083l0.092,-0.083l0.093,-0.082l0.093,-0.081l0.094,-0.081l0.095,-0.08l0.095,-0.08l0.095,-0.079l0.096,-0.079l0.096,-0.078l0.097,-0.078l0.097,-0.077l0.098,-0.076l0.098,-0.076l0.099,-0.075l0.099,-0.075l0.1,-0.074l0.1,-0.073l0.1,-0.073l0.101,-0.072l0.102,-0.072l0.101,-0.071l0.103,-0.071l0.102,-0.07l0.104,-0.069l0.103,-0.069l0.104,-0.068l0.105,-0.067l0.105,-0.067l0.105,-0.067l0.106,-0.065l0.106,-0.065l0.107,-0.065l0.107,-0.064l0.107,-0.063l0.108,-0.062l0.108,-0.062l0.109,-0.061l0.109,-0.061l0.109,-0.06l0.11,-0.059l0.11,-0.059l0.111,-0.058l0.111,-0.057l0.112,-0.057l0.111,-0.056l0.113,-0.056l0.112,-0.054l0.113,-0.055l0.113,-0.053l0.114,-0.053l0.114,-0.052l0.115,-0.051l0.114,-0.051l0.116,-0.05l0.115,-0.049l0.116,-0.049l0.116,-0.048l0.117,-0.047l0.117,-0.047l0.117,-0.046l0.118,-0.045l0.118,-0.045l0.118,-0.044l0.119,-0.043l0.119,-0.042l0.119,-0.042l0.12,-0.041l0.12,-0.04l0.12,-0.04l0.121,-0.039l0.12,-0.038l0.122,-0.037l0.121,-0.037l0.122,-0.036l0.122,-0.035l0.123,-0.034l0.123,-0.034l0.123,-0.033l0.123,-0.032l0.124,-0.032l0.124,-0.031l0.124,-0.03l0.125,-0.029l0.124,-0.028l0.126,-0.028l0.125,-0.027l0.126,-0.026l0.126,-0.026l0.126,-0.024l0.126,-0.024l0.127,-0.023l0.127,-0.023l0.128,-0.021l0.127,-0.021l0.128,-0.02l0.128,-0.019l0.128,-0.019l0.129,-0.017l0.129,-0.017l0.129,-0.016l0.129,-0.016l0.13,-0.014l0.129,-0.014l0.131,-0.012l0.13,-0.013l0.13,-0.011l0.131,-0.01l0.131,-0.01l0.131,-0.008l0.131,-0.008l0.132,-0.008l0.132,-0.006l0.132,-0.005l0.132,-0.005l0.133,-0.004l0.132,-0.003l0.133,-0.002l0.133,-0.001l0.133,0l0.134,0Zm-0.209,9.074l-0.076,0.001l-0.075,0.001l-0.075,0.002l-0.075,0.002l-0.073,0.002l-0.075,0.004l-0.075,0.003l-0.074,0.004l-0.074,0.005l-0.074,0.005l-0.073,0.005l-0.073,0.006l-0.073,0.006l-0.073,0.007l-0.074,0.007l-0.072,0.008l-0.072,0.008l-0.073,0.008l-0.072,0.009l-0.072,0.01l-0.072,0.01l-0.072,0.01l-0.071,0.011l-0.071,0.011l-0.07,0.011l-0.072,0.012l-0.072,0.013l-0.07,0.013l-0.07,0.013l-0.07,0.014l-0.071,0.014l-0.07,0.015l-0.069,0.014l-0.07,0.016l-0.07,0.016l-0.069,0.016l-0.07,0.017l-0.068,0.017l-0.069,0.017l-0.069,0.019l-0.067,0.017l-0.069,0.019l-0.069,0.02l-0.067,0.019l-0.068,0.02l-0.068,0.021l-0.067,0.02l-0.068,0.022l-0.067,0.021l-0.067,0.022l-0.066,0.022l-0.067,0.024l-0.067,0.023l-0.066,0.023l-0.065,0.024l-0.066,0.024l-0.066,0.026l-0.067,0.025l-0.065,0.025l-0.064,0.026l-0.065,0.027l-0.065,0.026l-0.065,0.028l-0.064,0.027l-0.064,0.028l-0.065,0.028l-0.064,0.029l-0.063,0.029l-0.063,0.03l-0.064,0.03l-0.063,0.03l-0.063,0.031l-0.063,0.03l-0.062,0.032l-0.063,0.032l-0.061,0.031l-0.062,0.033l-0.063,0.033l-0.061,0.033l-0.061,0.034l-0.062,0.034l-0.06,0.034l-0.061,0.035l-0.061,0.035l-0.06,0.035l-0.06,0.036l-0.059,0.036l-0.061,0.037l-0.058,0.036l-0.06,0.038l-0.059,0.038l-0.058,0.037l-0.058,0.038l-0.059,0.039l-0.058,0.039l-0.058,0.039l-0.058,0.04l-0.057,0.04l-0.057,0.04l-0.057,0.042l-0.056,0.04l-0.056,0.041l-0.056,0.042l-0.057,0.043l-0.055,0.042l-0.055,0.042l-0.056,0.044l-0.054,0.043l-0.054,0.043l-0.055,0.045l-0.055,0.044l-0.053,0.045l-0.053,0.045l-0.054,0.045l-0.053,0.046l-0.053,0.046l-0.052,0.046l-0.052,0.047l-0.052,0.046l-0.052,0.048l-0.051,0.047l-0.051,0.048l-0.052,0.049l-0.049,0.047l-0.05,0.049l-0.05,0.049l-0.05,0.05l-0.049,0.049l-0.049,0.05l-0.049,0.05l-0.048,0.05l-0.048,0.051l-0.049,0.052l-0.047,0.051l-0.047,0.051l-0.047,0.052l-0.047,0.053l-0.046,0.052l-0.046,0.052l-0.046,0.054l-0.045,0.053l-0.045,0.053l-0.044,0.054l-0.045,0.054l-0.044,0.055l-0.043,0.054l-0.044,0.055l-0.044,0.056l-0.042,0.055l-0.042,0.055l-0.042,0.056l-0.042,0.056l-0.041,0.056l-0.041,0.057l-0.041,0.057l-0.04,0.056l-0.041,0.058l-0.04,0.059l-0.038,0.056l-0.039,0.058l-0.039,0.059l-0.038,0.058l-0.038,0.059l-0.038,0.059l-0.037,0.059l-0.037,0.059l-0.036,0.06l-0.037,0.06l-0.036,0.06l-0.035,0.06l-0.035,0.06l-0.035,0.061l-0.034,0.061l-0.034,0.062l-0.034,0.061l-0.032,0.061l-0.034,0.062l-0.032,0.062l-0.032,0.061l-0.032,0.063l-0.031,0.063l-0.031,0.062l-0.031,0.064l-0.03,0.063l-0.03,0.063l-0.029,0.063l-0.029,0.064l-0.029,0.064l-0.029,0.064l-0.027,0.064l-0.028,0.064l-0.027,0.066l-0.027,0.064l-0.026,0.066l-0.026,0.064l-0.026,0.065l-0.025,0.066l-0.025,0.067l-0.025,0.066l-0.023,0.065l-0.024,0.066l-0.023,0.066l-0.023,0.068l-0.022,0.066l-0.022,0.067l-0.022,0.067l-0.021,0.068l-0.021,0.067l-0.02,0.067l-0.021,0.069l-0.019,0.067l-0.019,0.068l-0.019,0.069l-0.018,0.068l-0.018,0.069l-0.018,0.069l-0.017,0.068l-0.017,0.07l-0.016,0.069l-0.016,0.069l-0.015,0.071l-0.015,0.069l-0.015,0.07l-0.014,0.07l-0.014,0.07l-0.013,0.07l-0.013,0.071l-0.012,0.072l-0.012,0.071l-0.012,0.07l-0.011,0.071l-0.011,0.073l-0.01,0.07l-0.01,0.072l-0.009,0.073l-0.009,0.071l-0.009,0.072l-0.008,0.074l-0.008,0.072l-0.007,0.073l-0.007,0.074l-0.006,0.072l-0.006,0.074l-0.005,0.073l-0.005,0.074l-0.004,0.074l-0.004,0.073l-0.004,0.075l-0.003,0.075l-0.003,0.074l-0.002,0.075l-0.001,0.075l-0.002,0.075l0,0.076l-0.001,0.075l0.001,0.075l0,0.076l0.002,0.075l0.001,0.075l0.002,0.075l0.003,0.073l0.003,0.076l0.004,0.074l0.004,0.074l0.004,0.074l0.005,0.074l0.005,0.073l0.006,0.073l0.006,0.073l0.007,0.073l0.007,0.073l0.008,0.073l0.008,0.074l0.009,0.071l0.009,0.072l0.009,0.072l0.01,0.072l0.01,0.071l0.011,0.072l0.011,0.072l0.012,0.07l0.012,0.071l0.012,0.072l0.013,0.07l0.013,0.071l0.014,0.07l0.014,0.07l0.015,0.07l0.015,0.069l0.015,0.07l0.016,0.07l0.016,0.069l0.017,0.07l0.017,0.068l0.018,0.069l0.018,0.069l0.018,0.068l0.019,0.069l0.019,0.068l0.019,0.067l0.021,0.069l0.02,0.067l0.021,0.067l0.021,0.068l0.022,0.067l0.022,0.067l0.022,0.066l0.023,0.067l0.023,0.067l0.024,0.066l0.023,0.065l0.025,0.066l0.025,0.067l0.025,0.066l0.026,0.065l0.026,0.064l0.026,0.065l0.027,0.065l0.027,0.066l0.028,0.064l0.027,0.064l0.029,0.064l0.029,0.064l0.029,0.064l0.029,0.063l0.03,0.063l0.03,0.063l0.031,0.063l0.031,0.063l0.031,0.063l0.032,0.063l0.032,0.06l0.032,0.063l0.034,0.063l0.032,0.06l0.034,0.061l0.034,0.062l0.034,0.06l0.035,0.062l0.035,0.06l0.035,0.059l0.036,0.061l0.037,0.06l0.036,0.06l0.036,0.058l0.038,0.059l0.038,0.06l0.038,0.059l0.038,0.058l0.038,0.058l0.04,0.059l0.039,0.057l0.04,0.058l0.04,0.057l0.04,0.057l0.041,0.057l0.041,0.057l0.041,0.055l0.042,0.057l0.042,0.057l0.042,0.055l0.042,0.054l0.044,0.056l0.044,0.055l0.043,0.054l0.044,0.055l0.045,0.054l0.044,0.054l0.045,0.053l0.045,0.053l0.046,0.054l0.046,0.052l0.046,0.052l0.047,0.052l0.047,0.052l0.047,0.052l0.047,0.051l0.049,0.052l0.048,0.05l0.048,0.05l0.049,0.051l0.049,0.05l0.049,0.049l0.05,0.05l0.05,0.049l0.05,0.048l0.05,0.048l0.051,0.049l0.051,0.048l0.051,0.047l0.052,0.047l0.052,0.047l0.052,0.047l0.052,0.046l0.053,0.046l0.053,0.046l0.054,0.045l0.053,0.045l0.053,0.045l0.055,0.044l0.054,0.044l0.054,0.043l0.056,0.044l0.055,0.044l0.055,0.042l0.055,0.042l0.057,0.043l0.056,0.041l0.056,0.041l0.056,0.042l0.057,0.04l0.057,0.04l0.058,0.041l0.057,0.04l0.058,0.038l0.058,0.04l0.059,0.039l0.058,0.037l0.058,0.038l0.059,0.038l0.06,0.038l0.058,0.036l0.06,0.036l0.06,0.037l0.061,0.036l0.059,0.035l0.061,0.035l0.061,0.035l0.06,0.034l0.062,0.034l0.061,0.034l0.061,0.032l0.063,0.034l0.062,0.033l0.061,0.031l0.063,0.032l0.062,0.031l0.063,0.031l0.063,0.031l0.063,0.03l0.064,0.03l0.063,0.03l0.063,0.029l0.064,0.028l0.065,0.029l0.064,0.028l0.064,0.027l0.065,0.027l0.065,0.027l0.064,0.026l0.065,0.026l0.066,0.026l0.066,0.025l0.065,0.025l0.067,0.025l0.065,0.024l0.066,0.023l0.068,0.024l0.066,0.022l0.066,0.022l0.067,0.023l0.067,0.021l0.068,0.022l0.067,0.02l0.068,0.021l0.067,0.02l0.068,0.019l0.069,0.019l0.069,0.019l0.068,0.019l0.067,0.017l0.07,0.018l0.069,0.017l0.069,0.017l0.069,0.016l0.07,0.016l0.07,0.015l0.069,0.015l0.07,0.015l0.071,0.014l0.07,0.014l0.07,0.013l0.07,0.013l0.072,0.013l0.071,0.012l0.07,0.011l0.073,0.011l0.071,0.011l0.071,0.01l0.072,0.01l0.072,0.01l0.072,0.009l0.072,0.008l0.073,0.008l0.073,0.008l0.073,0.007l0.073,0.007l0.073,0.006l0.073,0.006l0.073,0.005l0.074,0.005l0.074,0.005l0.074,0.004l0.075,0.003l0.075,0.003l0.073,0.003l0.075,0.002l0.075,0.002l0.075,0.001l0.076,0.001l0.075,0l0.076,0l0.076,-0.001l0.074,-0.001l0.075,-0.002l0.075,-0.002l0.074,-0.003l0.075,-0.003l0.075,-0.003l0.073,-0.004l0.075,-0.005l0.073,-0.005l0.074,-0.005l0.073,-0.006l0.072,-0.006l0.074,-0.007l0.073,-0.007l0.073,-0.008l0.073,-0.008l0.072,-0.008l0.072,-0.009l0.072,-0.01l0.072,-0.01l0.07,-0.01l0.072,-0.011l0.073,-0.011l0.07,-0.011l0.07,-0.012l0.072,-0.013l0.071,-0.013l0.07,-0.013l0.07,-0.014l0.071,-0.014l0.07,-0.015l0.069,-0.015l0.07,-0.015l0.069,-0.016l0.069,-0.016l0.07,-0.017l0.069,-0.017l0.069,-0.018l0.068,-0.017l0.068,-0.019l0.069,-0.019l0.068,-0.019l0.068,-0.019l0.068,-0.02l0.067,-0.021l0.068,-0.02l0.067,-0.022l0.068,-0.021l0.067,-0.023l0.065,-0.022l0.067,-0.022l0.068,-0.024l0.065,-0.023l0.066,-0.024l0.066,-0.025l0.066,-0.025l0.065,-0.025l0.066,-0.026l0.066,-0.026l0.064,-0.026l0.065,-0.027l0.065,-0.027l0.064,-0.027l0.064,-0.028l0.064,-0.029l0.064,-0.028l0.064,-0.029l0.063,-0.03l0.064,-0.03l0.063,-0.03l0.063,-0.031l0.062,-0.031l0.063,-0.031l0.063,-0.032l0.061,-0.031l0.062,-0.033l0.063,-0.034l0.06,-0.032l0.062,-0.034l0.062,-0.034l0.06,-0.034l0.061,-0.035l0.06,-0.035l0.06,-0.035l0.06,-0.036l0.061,-0.037l0.059,-0.036l0.058,-0.036l0.06,-0.038l0.06,-0.038l0.058,-0.038l0.059,-0.038l0.057,-0.038l0.059,-0.039l0.057,-0.039l0.058,-0.04l0.058,-0.041l0.057,-0.04l0.056,-0.04l0.057,-0.042l0.056,-0.041l0.056,-0.041l0.057,-0.043l0.055,-0.042l0.054,-0.042l0.056,-0.044l0.056,-0.044l0.054,-0.043l0.054,-0.044l0.054,-0.044l0.054,-0.045l0.053,-0.045l0.053,-0.045l0.054,-0.046l0.052,-0.046l0.053,-0.046l0.052,-0.047l0.052,-0.047l0.051,-0.047l0.051,-0.047l0.052,-0.048l0.051,-0.049l0.05,-0.048l0.05,-0.048l0.05,-0.049l0.05,-0.05l0.049,-0.049l0.049,-0.05l0.049,-0.051l0.048,-0.05l0.048,-0.05l0.048,-0.052l0.047,-0.051l0.048,-0.052l0.047,-0.052l0.046,-0.052l0.047,-0.052l0.045,-0.052l0.046,-0.054l0.046,-0.053l0.044,-0.053l0.045,-0.054l0.044,-0.054l0.044,-0.055l0.044,-0.054l0.044,-0.055l0.043,-0.056l0.042,-0.054l0.042,-0.055l0.043,-0.057l0.042,-0.057l0.041,-0.055l0.041,-0.057l0.041,-0.057l0.04,-0.057l0.04,-0.057l0.04,-0.058l0.039,-0.057l0.039,-0.059l0.039,-0.058l0.038,-0.058l0.038,-0.059l0.038,-0.06l0.037,-0.059l0.036,-0.058l0.037,-0.06l0.036,-0.06l0.036,-0.061l0.035,-0.059l0.035,-0.06l0.035,-0.062l0.034,-0.06l0.035,-0.062l0.033,-0.061l0.033,-0.06l0.033,-0.063l0.033,-0.063l0.031,-0.06l0.032,-0.063l0.032,-0.063l0.031,-0.063l0.031,-0.063l0.03,-0.063l0.03,-0.063l0.029,-0.063l0.029,-0.064l0.029,-0.064l0.028,-0.064l0.028,-0.064l0.027,-0.064l0.028,-0.066l0.027,-0.065l0.026,-0.065l0.026,-0.064l0.025,-0.065l0.026,-0.066l0.025,-0.067l0.024,-0.066l0.024,-0.065l0.023,-0.066l0.024,-0.067l0.023,-0.067l0.022,-0.066l0.022,-0.067l0.022,-0.067l0.021,-0.068l0.021,-0.067l0.02,-0.067l0.02,-0.069l0.02,-0.067l0.019,-0.068l0.019,-0.069l0.018,-0.068l0.018,-0.069l0.017,-0.069l0.017,-0.068l0.017,-0.07l0.016,-0.069l0.016,-0.07l0.016,-0.07l0.015,-0.069l0.014,-0.07l0.015,-0.07l0.013,-0.07l0.014,-0.071l0.012,-0.07l0.013,-0.072l0.012,-0.071l0.011,-0.07l0.012,-0.072l0.011,-0.072l0.01,-0.071l0.01,-0.072l0.009,-0.072l0.009,-0.072l0.009,-0.072l0.008,-0.073l0.007,-0.072l0.007,-0.074l0.007,-0.073l0.006,-0.073l0.006,-0.073l0.006,-0.073l0.005,-0.074l0.004,-0.074l0.004,-0.074l0.004,-0.074l0.003,-0.076l0.002,-0.073l0.002,-0.075l0.002,-0.075l0.001,-0.075l0.001,-0.076l0,-0.075l0,-0.075l-0.001,-0.076l-0.001,-0.075l-0.002,-0.075l-0.002,-0.075l-0.002,-0.074l-0.003,-0.075l-0.004,-0.075l-0.004,-0.073l-0.004,-0.074l-0.005,-0.074l-0.006,-0.073l-0.006,-0.074l-0.006,-0.072l-0.007,-0.074l-0.007,-0.074l-0.007,-0.071l-0.008,-0.073l-0.009,-0.073l-0.009,-0.071l-0.009,-0.073l-0.01,-0.072l-0.01,-0.07l-0.011,-0.073l-0.012,-0.071l-0.011,-0.07l-0.012,-0.071l-0.013,-0.072l-0.012,-0.071l-0.014,-0.07l-0.013,-0.07l-0.015,-0.07l-0.014,-0.07l-0.015,-0.069l-0.016,-0.071l-0.016,-0.069l-0.016,-0.069l-0.017,-0.07l-0.017,-0.068l-0.017,-0.069l-0.018,-0.069l-0.018,-0.068l-0.019,-0.069l-0.019,-0.068l-0.02,-0.067l-0.02,-0.069l-0.02,-0.067l-0.021,-0.067l-0.021,-0.068l-0.022,-0.067l-0.022,-0.067l-0.022,-0.066l-0.023,-0.068l-0.024,-0.066l-0.023,-0.066l-0.024,-0.065l-0.024,-0.066l-0.025,-0.067l-0.026,-0.066l-0.025,-0.065l-0.026,-0.064l-0.026,-0.066l-0.027,-0.064l-0.028,-0.066l-0.027,-0.064l-0.028,-0.064l-0.028,-0.064l-0.029,-0.064l-0.029,-0.064l-0.029,-0.063l-0.03,-0.063l-0.03,-0.063l-0.031,-0.064l-0.031,-0.062l-0.032,-0.063l-0.032,-0.063l-0.031,-0.061l-0.033,-0.062l-0.033,-0.062l-0.033,-0.061l-0.033,-0.061l-0.035,-0.062l-0.034,-0.061l-0.035,-0.061l-0.035,-0.06l-0.035,-0.06l-0.036,-0.06l-0.036,-0.06l-0.037,-0.06l-0.036,-0.059l-0.037,-0.059l-0.038,-0.059l-0.038,-0.059l-0.038,-0.058l-0.039,-0.059l-0.039,-0.058l-0.039,-0.056l-0.04,-0.059l-0.04,-0.058l-0.04,-0.056l-0.041,-0.057l-0.041,-0.057l-0.042,-0.056l-0.041,-0.056l-0.042,-0.056l-0.042,-0.055l-0.043,-0.055l-0.043,-0.056l-0.044,-0.055l-0.044,-0.054l-0.044,-0.055l-0.044,-0.054l-0.045,-0.054l-0.044,-0.053l-0.046,-0.053l-0.046,-0.054l-0.045,-0.052l-0.047,-0.052l-0.046,-0.053l-0.047,-0.052l-0.048,-0.052l-0.047,-0.05l-0.047,-0.051l-0.049,-0.052l-0.048,-0.05l-0.049,-0.05l-0.049,-0.05l-0.049,-0.049l-0.05,-0.05l-0.051,-0.049l-0.049,-0.049l-0.05,-0.047l-0.052,-0.049l-0.051,-0.048l-0.05,-0.047l-0.052,-0.048l-0.052,-0.046l-0.052,-0.047l-0.053,-0.046l-0.052,-0.046l-0.054,-0.046l-0.053,-0.045l-0.053,-0.045l-0.054,-0.045l-0.054,-0.044l-0.055,-0.045l-0.054,-0.043l-0.054,-0.043l-0.056,-0.044l-0.055,-0.042l-0.055,-0.042l-0.057,-0.043l-0.057,-0.042l-0.055,-0.041l-0.056,-0.04l-0.058,-0.042l-0.056,-0.04l-0.058,-0.04l-0.058,-0.04l-0.057,-0.039l-0.059,-0.039l-0.057,-0.038l-0.059,-0.039l-0.058,-0.037l-0.06,-0.038l-0.06,-0.038l-0.058,-0.036l-0.06,-0.037l-0.06,-0.036l-0.059,-0.036l-0.061,-0.035l-0.06,-0.035l-0.061,-0.035l-0.06,-0.034l-0.062,-0.034l-0.062,-0.034l-0.06,-0.033l-0.063,-0.033l-0.062,-0.033l-0.061,-0.031l-0.063,-0.032l-0.063,-0.032l-0.062,-0.03l-0.063,-0.031l-0.063,-0.03l-0.064,-0.03l-0.063,-0.03l-0.064,-0.029l-0.064,-0.029l-0.064,-0.028l-0.064,-0.028l-0.064,-0.027l-0.065,-0.028l-0.065,-0.026l-0.065,-0.027l-0.065,-0.026l-0.065,-0.025l-0.066,-0.025l-0.067,-0.026l-0.065,-0.024l-0.066,-0.024l-0.065,-0.023l-0.067,-0.023l-0.068,-0.024l-0.065,-0.022l-0.067,-0.022l-0.068,-0.021l-0.067,-0.022l-0.068,-0.02l-0.067,-0.021l-0.069,-0.02l-0.067,-0.019l-0.068,-0.02l-0.069,-0.019l-0.067,-0.017l-0.069,-0.019l-0.069,-0.017l-0.068,-0.017l-0.071,-0.017l-0.069,-0.016l-0.069,-0.016l-0.07,-0.016l-0.069,-0.014l-0.07,-0.015l-0.071,-0.014l-0.07,-0.014l-0.07,-0.013l-0.071,-0.013l-0.072,-0.013l-0.071,-0.012l-0.07,-0.011l-0.071,-0.011l-0.072,-0.011l-0.071,-0.01l-0.072,-0.01l-0.072,-0.01l-0.072,-0.009l-0.073,-0.008l-0.072,-0.008l-0.072,-0.008l-0.074,-0.007l-0.074,-0.007l-0.072,-0.006l-0.073,-0.006l-0.074,-0.005l-0.073,-0.005l-0.075,-0.005l-0.073,-0.004l-0.075,-0.003l-0.075,-0.004l-0.074,-0.002l-0.075,-0.002l-0.075,-0.002l-0.074,-0.001l-0.076,-0.001l-0.076,0l-0.075,0Z" style="fill:#fff;"/></g><path d="M246.688,88.416l15.873,0l0,-36.076l8.079,0c9.123,0.26 13.293,3.907 15.769,15.368c2.476,10.94 4.559,18.103 5.86,20.708l16.527,0c-1.824,-3.386 -4.167,-13.545 -6.899,-24.485c-2.212,-8.465 -5.985,-14.583 -12.23,-16.924l0,-0.39c8.196,-2.991 15.873,-10.674 15.873,-22.011c0,-7.428 -2.733,-13.551 -7.547,-17.583c-5.854,-4.942 -14.451,-7.023 -27.092,-7.023c-9.251,0 -18.228,0.78 -24.213,1.821l0,86.595Zm15.873,-75.538c1.564,-0.391 4.821,-0.782 9.904,-0.782c10.425,0 17.202,4.431 17.202,14.074c0,8.731 -6.777,14.465 -17.593,14.465l-9.513,0l0,-27.757Z" style="fill:#007f4c;fill-rule:nonzero;"/><path d="M374.306,61.196c0.26,-1.431 0.521,-3.771 0.521,-6.763c0,-13.939 -6.765,-30.86 -27.341,-30.86c-20.322,0 -30.99,16.53 -30.99,34.112c0,19.416 12.099,32.033 32.684,32.033c9.122,0 16.67,-1.69 22.134,-3.902l-2.342,-11.062c-4.813,1.825 -10.149,2.868 -17.577,2.868c-10.164,0 -19.156,-4.954 -19.547,-16.426l42.458,0Zm-42.458,-11.184c0.651,-6.519 4.822,-15.515 14.725,-15.515c10.686,0 13.292,9.648 13.162,15.515l-27.887,0Z" style="fill:#007f4c;fill-rule:nonzero;"/><path d="M430.195,114.203l16.003,0l0,-70.847c0,-6.645 0.26,-12.628 0.521,-18.35l-15.484,0l-0.39,8.453l-0.26,-0.13c-3.388,-5.984 -9.642,-9.756 -18.503,-9.756c-13.55,0 -28.383,10.926 -28.383,34.115c0,19.804 12.36,32.161 26.558,32.161c9.252,0 15.898,-4.033 19.677,-10.146l0.261,0l0,34.5Zm0,-52.476c0,1.564 -0.261,3.388 -0.782,4.951c-1.825,6.384 -7.167,10.554 -13.683,10.554c-10.164,0 -15.767,-8.73 -15.767,-20.326c0,-11.986 5.864,-20.716 16.158,-20.716c7.167,0 12.249,5.081 13.682,11.075c0.261,1.172 0.392,2.606 0.392,3.909l0,10.553Z" style="fill:#007f4c;fill-rule:nonzero;"/><path d="M520.173,25.006l-16.003,0l0,38.29c0,1.823 -0.391,3.517 -0.912,4.949c-1.694,4.038 -5.864,8.596 -12.25,8.596c-8.471,0 -11.86,-6.772 -11.86,-17.322l0,-34.513l-16.003,0l0,37.248c0,20.701 10.539,27.595 22.128,27.595c11.339,0 17.594,-6.504 20.328,-11.057l0.261,0l0.78,9.624l14.052,0c-0.26,-5.208 -0.521,-11.458 -0.521,-19.01l0,-44.4Z" style="fill:#007f4c;fill-rule:nonzero;"/><path d="M591.284,61.196c0.261,-1.431 0.521,-3.771 0.521,-6.763c0,-13.939 -6.765,-30.86 -27.341,-30.86c-20.322,0 -30.99,16.53 -30.99,34.112c0,19.416 12.1,32.033 32.684,32.033c9.122,0 16.67,-1.69 22.134,-3.902l-2.342,-11.062c-4.813,1.825 -10.149,2.868 -17.577,2.868c-10.164,0 -19.156,-4.954 -19.547,-16.426l42.458,0Zm-42.458,-11.184c0.652,-6.519 4.822,-15.515 14.725,-15.515c10.686,0 13.292,9.648 13.162,15.515l-27.887,0Z" style="fill:#007f4c;fill-rule:nonzero;"/><path d="M600.808,85.297c4.685,2.601 11.58,4.421 19.262,4.421c16.807,0 25.784,-8.323 25.784,-19.783c-0.13,-9.381 -5.464,-15.244 -16.917,-19.413c-8.085,-2.866 -11.084,-4.821 -11.084,-8.859c0,-3.909 3.129,-6.645 8.867,-6.645c5.603,0 10.677,2.084 13.409,3.648l3.123,-11.321c-3.643,-1.951 -9.758,-3.772 -16.792,-3.772c-14.722,0 -23.959,8.714 -23.959,19.914c-0.131,7.426 5.074,14.201 17.438,18.501c7.825,2.736 10.433,4.95 10.433,9.25c0,4.169 -3.13,7.036 -10.172,7.036c-5.73,0 -12.625,-2.346 -16.268,-4.56l-3.124,11.583Z" style="fill:#007f4c;fill-rule:nonzero;"/><path d="M661.759,10.68l0,14.326l-9.116,0l0,11.966l9.116,0l0,29.837c0,8.338 1.562,14.064 4.944,17.706c2.993,3.252 7.937,5.203 13.795,5.203c5.079,0 9.247,-0.65 11.591,-1.561l-0.261,-12.228c-1.432,0.391 -3.516,0.782 -6.251,0.782c-6.121,0 -8.205,-4.039 -8.205,-11.727l0,-28.012l15.238,0l0,-11.966l-15.238,0l0,-18.103l-15.613,3.777Z" style="fill:#007f4c;fill-rule:nonzero;"/><path d="M246.688,193.961l5.642,0l0,-34.661c2.89,0.84 6.261,0.96 9.874,0.96c9.874,0 18.664,-3.119 23.842,-9.134c3.601,-3.973 5.642,-9.151 5.642,-16.135c0,-6.863 -2.401,-12.161 -6.244,-15.894c-4.456,-4.446 -11.801,-6.846 -21.434,-6.846c-6.864,0 -12.641,0.6 -17.322,1.56l0,80.15Zm5.642,-75.947c2.167,-0.482 6.141,-0.963 11.439,-0.963c12.884,0 22.157,5.659 22.157,18.422c0,12.884 -8.791,19.988 -23.241,19.988c-3.973,0 -7.465,-0.361 -10.355,-1.204l0,-36.243Z" style="fill:#c21f47;fill-rule:nonzero;"/><path d="M304.461,193.961l5.642,0l0,-31.895c0,-1.926 0.241,-3.852 0.481,-5.537c1.565,-9.268 7.222,-16.128 15.166,-16.128c1.083,0 1.926,0 2.768,0.24l0,-5.522c-0.722,-0.12 -1.564,-0.24 -2.287,-0.24c-7.943,0 -13.962,5.762 -16.488,12.984l-0.24,0l-0.24,-11.66l-5.283,0c0.24,5.535 0.481,11.552 0.481,17.327l0,40.431Z" style="fill:#c21f47;fill-rule:nonzero;"/><path d="M361.144,134.879c-14.328,0 -27.315,10.82 -27.315,30.685c0,18.059 11.542,29.721 26.472,29.721c12.883,0 27.675,-9.133 27.675,-30.805c0,-17.698 -10.819,-29.601 -26.832,-29.601Zm-0.121,4.679c15.171,0 21.191,14.689 21.191,25.284c0,14.808 -9.512,25.644 -21.552,25.644c-11.8,0 -21.071,-10.836 -21.071,-25.283c0,-12.401 6.743,-25.645 21.432,-25.645Z" style="fill:#c21f47;fill-rule:nonzero;"/><path d="M440.935,186.994c-3.129,1.325 -7.582,3.251 -14.443,3.251c-13.36,0 -22.869,-9.872 -22.869,-24.922c0,-13.605 7.944,-25.524 23.471,-25.524c6.379,0 10.832,1.805 13.721,3.371l2.046,-4.691c-2.287,-1.56 -8.064,-3.6 -15.165,-3.6c-17.332,0 -29.835,12.505 -29.835,30.805c0,17.458 11.058,29.481 27.788,29.481c8.305,0 14.323,-2.4 16.851,-3.72l-1.565,-4.451Z" style="fill:#c21f47;fill-rule:nonzero;"/><path d="M499.792,164.473c0.24,-0.96 0.24,-1.92 0.24,-3.479c0,-8.307 -3.601,-26.115 -22.499,-26.115c-14.931,0 -25.991,12.027 -25.991,31.28c0,16.981 10.338,29.006 26.955,29.006c10.114,0 16.013,-2.4 18.174,-3.6l-1.441,-4.572c-3.247,1.566 -7.582,3.252 -16.011,3.252c-11.921,0 -22.035,-7.226 -22.035,-25.772l42.608,0Zm-42.247,-4.559c0.963,-8.913 6.502,-20.356 19.266,-20.356c13.967,0 17.338,12.286 17.218,20.356l-36.484,0Z" style="fill:#c21f47;fill-rule:nonzero;"/><path d="M510.278,191.205c3.846,2.4 9.013,3.96 14.674,3.96c11.804,0 19.494,-6.605 19.494,-16.478c0,-8.789 -5.522,-13.484 -14.917,-17.096c-7.829,-3.251 -11.924,-5.9 -11.924,-11.919c0,-5.298 3.854,-9.993 11.202,-9.993c5.781,0 9.515,2.047 11.437,3.491l2.281,-4.691c-3.001,-2.04 -7.455,-3.6 -12.755,-3.6c-11.322,0 -17.807,7.328 -17.807,15.635c0,6.983 5.162,12.16 14.676,15.772c8.31,3.371 12.165,6.742 12.165,13.123c0,6.02 -4.336,10.956 -13.49,10.956c-5.18,0 -9.87,-2.046 -12.991,-3.973l-2.045,4.813Z" style="fill:#c21f47;fill-rule:nonzero;"/><path d="M555.173,191.205c3.846,2.4 9.013,3.96 14.674,3.96c11.804,0 19.493,-6.605 19.493,-16.478c0,-8.789 -5.522,-13.484 -14.916,-17.096c-7.829,-3.251 -11.924,-5.9 -11.924,-11.919c0,-5.298 3.854,-9.993 11.201,-9.993c5.782,0 9.516,2.047 11.438,3.491l2.281,-4.691c-3.002,-2.04 -7.455,-3.6 -12.755,-3.6c-11.322,0 -17.807,7.328 -17.807,15.635c0,6.983 5.162,12.16 14.675,15.772c8.311,3.371 12.165,6.742 12.165,13.123c0,6.02 -4.336,10.956 -13.49,10.956c-5.179,0 -9.869,-2.046 -12.99,-3.973l-2.045,4.813Z" style="fill:#c21f47;fill-rule:nonzero;"/><path d="M627.021,134.879c-14.328,0 -27.315,10.82 -27.315,30.685c0,18.059 11.542,29.721 26.472,29.721c12.883,0 27.676,-9.133 27.676,-30.805c0,-17.698 -10.82,-29.601 -26.833,-29.601Zm-0.121,4.679c15.171,0 21.191,14.689 21.191,25.284c0,14.808 -9.512,25.644 -21.552,25.644c-11.799,0 -21.07,-10.836 -21.07,-25.283c0,-12.401 6.742,-25.645 21.431,-25.645Z" style="fill:#c21f47;fill-rule:nonzero;"/><path d="M668.553,193.961l5.642,0l0,-31.895c0,-1.926 0.24,-3.852 0.481,-5.537c1.565,-9.268 7.222,-16.128 15.165,-16.128c1.084,0 1.926,0 2.769,0.24l0,-5.522c-0.722,-0.12 -1.565,-0.24 -2.287,-0.24c-7.944,0 -13.962,5.762 -16.489,12.984l-0.24,0l-0.24,-11.66l-5.283,0c0.241,5.535 0.482,11.552 0.482,17.327l0,40.431Z" style="fill:#c21f47;fill-rule:nonzero;"/></svg>